<svg width="168" height="32" viewBox="0 0 168 32" fill="none" xmlns="http://www.w3.org/2000/svg">
<rect width="168" height="32" rx="4" fill="#153C58"/>
<g filter="url(#filter0_ii_22_488)">
<rect width="32" height="32" rx="4" fill="#153851"/>
<rect x="12" y="9" width="9" height="15" fill="#D9D9D9"/>
<g clip-path="url(#clip0_22_488)">
<g filter="url(#filter1_ii_22_488)">
<path d="M8.98488 4C7.61547 4 6.60212 5.50412 6.6475 7.13529C6.69109 8.70235 6.63447 10.7321 6.22731 12.3873C5.81894 14.0473 5.12819 15.0988 4 15.2339V16.7581C5.12819 16.8932 5.81894 17.9447 6.22731 19.6048C6.63447 21.26 6.69109 23.2895 6.6475 24.8567C6.60212 26.4876 7.61547 27.992 8.98506 27.992H23.0169C24.3864 27.992 25.3995 26.4879 25.3541 24.8567C25.3106 23.2896 25.3671 21.26 25.7743 19.6048C26.1829 17.9448 26.8718 16.8931 28 16.7581V15.2339C26.8718 15.0988 26.1829 14.0473 25.7744 12.3873C25.3671 10.7324 25.3106 8.70247 25.3541 7.13529C25.3995 5.50435 24.3864 4 23.0169 4H8.98469H8.98488V4ZM20.2712 18.7686C20.2712 21.0147 18.9363 22.3768 16.7208 22.3768H12.9492C12.8413 22.3768 12.7379 22.323 12.6616 22.2273C12.5853 22.1315 12.5425 22.0017 12.5425 21.8664V10.1256C12.5425 10.0586 12.553 9.99221 12.5734 9.93026C12.5939 9.86832 12.6238 9.81203 12.6616 9.76461C12.6994 9.7172 12.7442 9.67959 12.7936 9.65393C12.843 9.62827 12.8959 9.61506 12.9493 9.61506H16.6992C18.5465 9.61506 19.7589 10.8709 19.7589 12.7989C19.7589 14.1522 18.9433 15.3638 17.9042 15.5759V15.6466C19.3188 15.8413 20.2712 17.0706 20.2712 18.7686V18.7686ZM16.3094 11.2333H14.159V15.0451H15.9703C17.3703 15.0451 18.1425 14.3375 18.1425 13.0728C18.1425 11.8878 17.4785 11.2333 16.3095 11.2333H16.3094ZM14.159 16.5575V20.7581H16.3886C17.8462 20.7581 18.6185 20.0241 18.6185 18.6446C18.6185 17.2648 17.8248 16.5573 16.2948 16.5573H14.159V16.5575Z" fill="#6300E1"/>
</g>
</g>
</g>
<path d="M42.984 8.716C43.736 8.46 44.824 8.22 46.248 7.996C47.688 7.772 49.08 7.66 50.424 7.66C51.064 7.66 51.552 7.732 51.888 7.876C52.24 8.004 52.488 8.236 52.632 8.572C52.776 8.892 52.848 9.356 52.848 9.964V11.02C52.848 11.516 52.744 11.908 52.536 12.196C52.344 12.484 52.008 12.7 51.528 12.844C51.048 12.988 50.36 13.1 49.464 13.18L46.824 13.396V9.652C46.824 9.364 46.68 9.22 46.392 9.22C45.608 9.22 44.928 9.316 44.352 9.508C44.08 9.604 43.944 9.772 43.944 10.012V21.988C43.944 22.628 44.152 23.092 44.568 23.38C44.984 23.668 45.64 23.812 46.536 23.812C48.312 23.812 49.976 23.756 51.528 23.644C52.296 23.58 52.936 23.476 53.448 23.332C53.96 23.188 54.456 22.988 54.936 22.732C55.8 22.284 56.232 21.54 56.232 20.5V16.492C56.232 15.516 56.04 14.796 55.656 14.332C55.272 13.868 54.544 13.564 53.472 13.42V13.372C54.976 13.02 55.728 12.436 55.728 11.62V9.628C55.728 8.78 55.6 8.124 55.344 7.66C55.104 7.196 54.704 6.868 54.144 6.676C53.584 6.484 52.8 6.388 51.792 6.388C48.576 6.388 45.624 6.764 42.936 7.516C42.872 7.66 42.84 7.852 42.84 8.092C42.84 8.332 42.888 8.54 42.984 8.716ZM48.696 22.54C47.96 22.54 47.464 22.436 47.208 22.228C46.952 22.02 46.824 21.604 46.824 20.98V14.596C49.832 14.34 51.448 14.212 51.672 14.212C52.344 14.212 52.792 14.412 53.016 14.812C53.24 15.196 53.352 15.868 53.352 16.828V20.38C53.352 21.244 53.04 21.82 52.416 22.108C51.776 22.396 50.536 22.54 48.696 22.54ZM70.7385 13.756C70.7385 13.068 70.6425 12.54 70.4505 12.172C70.2585 11.804 69.9385 11.548 69.4905 11.404C69.0585 11.244 68.4345 11.164 67.6185 11.164C65.1705 11.164 63.3785 11.356 62.2425 11.74C61.1225 12.14 60.5625 12.836 60.5625 13.828V21.172C60.5625 21.86 60.6585 22.388 60.8505 22.756C61.0585 23.124 61.3865 23.388 61.8345 23.548C62.2825 23.708 62.9145 23.788 63.7305 23.788C66.1945 23.788 67.9785 23.588 69.0825 23.188C70.1865 22.772 70.7385 22.084 70.7385 21.124V13.756ZM68.0025 21.028C68.0185 21.652 67.8265 22.092 67.4265 22.348C67.0425 22.588 66.1465 22.724 64.7385 22.756C64.1625 22.756 63.7785 22.628 63.5865 22.372C63.3945 22.116 63.2985 21.628 63.2985 20.908V13.924C63.2825 13.284 63.4905 12.828 63.9225 12.556C64.3225 12.3 65.2185 12.172 66.6105 12.172C67.1385 12.172 67.4985 12.308 67.6905 12.58C67.8985 12.836 68.0025 13.324 68.0025 14.044V21.028ZM85.4676 13.756C85.4676 13.068 85.3716 12.54 85.1796 12.172C84.9876 11.804 84.6676 11.548 84.2196 11.404C83.7876 11.244 83.1636 11.164 82.3476 11.164C79.8996 11.164 78.1076 11.356 76.9716 11.74C75.8516 12.14 75.2916 12.836 75.2916 13.828V21.172C75.2916 21.86 75.3876 22.388 75.5796 22.756C75.7876 23.124 76.1156 23.388 76.5636 23.548C77.0116 23.708 77.6436 23.788 78.4596 23.788C80.9236 23.788 82.7076 23.588 83.8116 23.188C84.9156 22.772 85.4676 22.084 85.4676 21.124V13.756ZM82.7316 21.028C82.7476 21.652 82.5556 22.092 82.1556 22.348C81.7716 22.588 80.8756 22.724 79.4676 22.756C78.8916 22.756 78.5076 22.628 78.3156 22.372C78.1236 22.116 78.0276 21.628 78.0276 20.908V13.924C78.0116 13.284 78.2196 12.828 78.6516 12.556C79.0516 12.3 79.9476 12.172 81.3396 12.172C81.8676 12.172 82.2276 12.308 82.4196 12.58C82.6276 12.836 82.7316 13.324 82.7316 14.044V21.028ZM95.4926 23.356C95.5406 23.212 95.5646 23.076 95.5646 22.948C95.5646 22.756 95.5326 22.604 95.4686 22.492L93.8126 22.54C93.6366 22.54 93.5486 22.1 93.5486 21.22V12.412L95.4686 12.268C95.5326 12.156 95.5646 11.996 95.5646 11.788C95.5646 11.66 95.5246 11.46 95.4446 11.188L93.5486 11.332V7.54C93.5486 7.268 93.4126 7.132 93.1406 7.132C92.4526 7.132 91.8046 7.22 91.1966 7.396C90.9406 7.492 90.8126 7.652 90.8126 7.876V11.5L89.0366 11.62C88.9726 11.732 88.9406 11.892 88.9406 12.1C88.9406 12.228 88.9806 12.428 89.0606 12.7L90.8126 12.58V22.78C90.7966 23.116 90.8126 23.356 90.8606 23.5C90.9246 23.628 91.0526 23.708 91.2446 23.74C91.4366 23.788 91.7726 23.812 92.2526 23.812C93.3566 23.812 94.4366 23.66 95.4926 23.356ZM98.4024 23.692C99.2504 23.772 100.426 23.812 101.93 23.812C103.162 23.812 104.162 23.644 104.93 23.308C105.714 22.956 106.106 22.436 106.106 21.748C106.106 21.108 105.834 20.348 105.29 19.468L101.93 14.164C101.674 13.796 101.546 13.476 101.546 13.204C101.546 12.564 102.162 12.244 103.394 12.244C104.322 12.244 105.01 12.276 105.458 12.34C105.538 12.132 105.578 11.956 105.578 11.812C105.578 11.636 105.53 11.452 105.434 11.26C104.906 11.196 104.178 11.164 103.25 11.164C100.194 11.164 98.6664 11.844 98.6664 13.204C98.6664 13.604 98.7224 13.956 98.8344 14.26C98.9464 14.564 99.1944 15.004 99.5784 15.58L102.938 20.884C103.162 21.3 103.274 21.588 103.274 21.748C103.274 22.132 103.114 22.388 102.794 22.516C102.458 22.66 101.882 22.732 101.066 22.732C99.8024 22.732 98.9064 22.692 98.3784 22.612C98.3144 22.756 98.2824 22.932 98.2824 23.14C98.2824 23.348 98.3224 23.532 98.4024 23.692ZM115.224 23.356C115.272 23.212 115.296 23.076 115.296 22.948C115.296 22.756 115.264 22.604 115.2 22.492L113.544 22.54C113.368 22.54 113.28 22.1 113.28 21.22V12.412L115.2 12.268C115.264 12.156 115.296 11.996 115.296 11.788C115.296 11.66 115.256 11.46 115.176 11.188L113.28 11.332V7.54C113.28 7.268 113.144 7.132 112.872 7.132C112.184 7.132 111.536 7.22 110.928 7.396C110.672 7.492 110.544 7.652 110.544 7.876V11.5L108.768 11.62C108.704 11.732 108.672 11.892 108.672 12.1C108.672 12.228 108.712 12.428 108.792 12.7L110.544 12.58V22.78C110.528 23.116 110.544 23.356 110.592 23.5C110.656 23.628 110.784 23.708 110.976 23.74C111.168 23.788 111.504 23.812 111.984 23.812C113.088 23.812 114.168 23.66 115.224 23.356ZM119.382 12.436C119.558 12.436 119.646 12.876 119.646 13.756V22.78C119.63 23.116 119.646 23.356 119.694 23.5C119.758 23.628 119.886 23.708 120.078 23.74C120.27 23.788 120.606 23.812 121.086 23.812C122.19 23.812 123.27 23.66 124.326 23.356C124.374 23.212 124.398 23.076 124.398 22.948C124.398 22.756 124.366 22.604 124.302 22.492L122.646 22.54C122.47 22.54 122.382 22.1 122.382 21.22V13.276C123.31 12.892 124.022 12.7 124.518 12.7C125.142 12.7 125.454 12.996 125.454 13.588V15.58C125.454 15.852 125.59 15.988 125.862 15.988C126.55 15.988 127.198 15.9 127.806 15.724C128.062 15.628 128.19 15.468 128.19 15.244V12.988C128.19 12.332 128.006 11.868 127.638 11.596C127.27 11.308 126.646 11.164 125.766 11.164C125.094 11.164 123.966 11.508 122.382 12.196C122.398 11.86 122.374 11.628 122.31 11.5C122.262 11.356 122.142 11.268 121.95 11.236C121.758 11.188 121.422 11.164 120.942 11.164C119.838 11.164 118.758 11.316 117.702 11.62C117.654 11.764 117.63 11.9 117.63 12.028C117.63 12.22 117.662 12.372 117.726 12.484L119.382 12.436ZM143.087 23.356C143.135 23.212 143.159 23.076 143.159 22.948C143.159 22.756 143.127 22.604 143.063 22.492L141.407 22.54C141.231 22.54 141.143 22.1 141.143 21.22V12.916C141.143 12.292 140.943 11.844 140.543 11.572C140.159 11.3 139.535 11.164 138.671 11.164C135.999 11.164 133.647 11.484 131.615 12.124C131.551 12.236 131.519 12.396 131.519 12.604C131.519 12.812 131.559 13.012 131.639 13.204C132.007 13.092 132.775 12.924 133.943 12.7C135.287 12.476 136.183 12.364 136.631 12.364C137.351 12.364 137.823 12.46 138.047 12.652C138.287 12.844 138.407 13.244 138.407 13.852V15.724C136.807 15.804 135.119 15.98 133.343 16.252C132.607 16.412 132.071 16.684 131.735 17.068C131.399 17.436 131.231 17.956 131.231 18.628V21.988C131.231 22.66 131.415 23.132 131.783 23.404C132.151 23.676 132.775 23.812 133.655 23.812C134.983 23.812 136.567 23.548 138.407 23.02C138.407 23.26 138.439 23.428 138.503 23.524C138.567 23.636 138.695 23.708 138.887 23.74C139.095 23.788 139.415 23.812 139.847 23.812C140.983 23.812 142.063 23.66 143.087 23.356ZM138.407 21.94C137.207 22.292 136.231 22.468 135.479 22.468C134.471 22.468 133.967 22.108 133.967 21.388V18.724C133.967 18.164 134.071 17.804 134.279 17.644C134.567 17.404 135.111 17.212 135.911 17.068C136.695 16.924 137.527 16.836 138.407 16.804V21.94ZM146.66 12.436C146.836 12.436 146.924 12.876 146.924 13.756V28.876C146.924 29.148 147.06 29.284 147.332 29.284C148.02 29.284 148.668 29.196 149.276 29.02C149.532 28.924 149.66 28.764 149.66 28.54V23.62C151.516 23.556 153.308 23.356 155.036 23.02C156.46 22.78 157.164 22.004 157.148 20.692V12.988C157.148 12.332 156.964 11.868 156.596 11.596C156.228 11.308 155.604 11.164 154.724 11.164C154.564 11.164 154.292 11.18 153.908 11.212C153.268 11.292 152.724 11.388 152.276 11.5C151.908 11.58 151.732 11.62 151.748 11.62C151.508 11.668 151.108 11.772 150.548 11.932L149.66 12.196C149.676 11.86 149.652 11.628 149.588 11.5C149.54 11.356 149.42 11.268 149.228 11.236C149.036 11.188 148.7 11.164 148.22 11.164C147.116 11.164 146.036 11.316 144.98 11.62C144.932 11.764 144.908 11.9 144.908 12.028C144.908 12.22 144.94 12.372 145.004 12.484L146.66 12.436ZM149.66 13.3C151.436 12.836 152.572 12.604 153.068 12.604C153.964 12.604 154.412 12.932 154.412 13.588V20.644C154.412 21.156 154.308 21.508 154.1 21.7C153.892 21.892 153.46 22.052 152.804 22.18C152.036 22.34 150.988 22.46 149.66 22.54V13.3Z" fill="white"/>
<defs>
<filter id="filter0_ii_22_488" x="-2" y="-2" width="36" height="36" filterUnits="userSpaceOnUse" color-interpolation-filters="sRGB">
<feFlood flood-opacity="0" result="BackgroundImageFix"/>
<feBlend mode="normal" in="SourceGraphic" in2="BackgroundImageFix" result="shape"/>
<feColorMatrix in="SourceAlpha" type="matrix" values="0 0 0 0 0 0 0 0 0 0 0 0 0 0 0 0 0 0 127 0" result="hardAlpha"/>
<feOffset dx="2" dy="2"/>
<feGaussianBlur stdDeviation="2"/>
<feComposite in2="hardAlpha" operator="arithmetic" k2="-1" k3="1"/>
<feColorMatrix type="matrix" values="0 0 0 0 0.172549 0 0 0 0 0.352941 0 0 0 0 0.482353 0 0 0 1 0"/>
<feBlend mode="normal" in2="shape" result="effect1_innerShadow_22_488"/>
<feColorMatrix in="SourceAlpha" type="matrix" values="0 0 0 0 0 0 0 0 0 0 0 0 0 0 0 0 0 0 127 0" result="hardAlpha"/>
<feOffset dx="-2" dy="-2"/>
<feGaussianBlur stdDeviation="2.5"/>
<feComposite in2="hardAlpha" operator="arithmetic" k2="-1" k3="1"/>
<feColorMatrix type="matrix" values="0 0 0 0 0.0392157 0 0 0 0 0.109804 0 0 0 0 0.160784 0 0 0 0.71 0"/>
<feBlend mode="normal" in2="effect1_innerShadow_22_488" result="effect2_innerShadow_22_488"/>
</filter>
<filter id="filter1_ii_22_488" x="2" y="2" width="28" height="27.9919" filterUnits="userSpaceOnUse" color-interpolation-filters="sRGB">
<feFlood flood-opacity="0" result="BackgroundImageFix"/>
<feBlend mode="normal" in="SourceGraphic" in2="BackgroundImageFix" result="shape"/>
<feColorMatrix in="SourceAlpha" type="matrix" values="0 0 0 0 0 0 0 0 0 0 0 0 0 0 0 0 0 0 127 0" result="hardAlpha"/>
<feOffset dx="2" dy="2"/>
<feGaussianBlur stdDeviation="1.5"/>
<feComposite in2="hardAlpha" operator="arithmetic" k2="-1" k3="1"/>
<feColorMatrix type="matrix" values="0 0 0 0 0 0 0 0 0 0 0 0 0 0 0 0 0 0 0.26 0"/>
<feBlend mode="normal" in2="shape" result="effect1_innerShadow_22_488"/>
<feColorMatrix in="SourceAlpha" type="matrix" values="0 0 0 0 0 0 0 0 0 0 0 0 0 0 0 0 0 0 127 0" result="hardAlpha"/>
<feOffset dx="-2" dy="-2"/>
<feGaussianBlur stdDeviation="2"/>
<feComposite in2="hardAlpha" operator="arithmetic" k2="-1" k3="1"/>
<feColorMatrix type="matrix" values="0 0 0 0 1 0 0 0 0 1 0 0 0 0 1 0 0 0 0.23 0"/>
<feBlend mode="normal" in2="effect1_innerShadow_22_488" result="effect2_innerShadow_22_488"/>
</filter>
<clipPath id="clip0_22_488">
<rect width="24" height="24" fill="white" transform="translate(4 4)"/>
</clipPath>
</defs>
</svg>
