<svg width="92" height="32" viewBox="0 0 92 32" fill="none" xmlns="http://www.w3.org/2000/svg">
<rect width="92" height="32" rx="4" fill="#153C58"/>
<g filter="url(#filter0_ii_19_194)">
<rect width="32" height="32" rx="4" fill="#153851"/>
<path d="M8.42669 24.4008L6.74219 5.5H25.2582L23.5714 24.3978L15.9889 26.5L8.42669 24.4008Z" fill="#1572B6"/>
<path d="M16 24.8935L22.1275 23.1948L23.569 7.04578H16V24.8935Z" fill="#33A9DC"/>
<path d="M16 13.8933H19.0675L19.279 11.5195H16V9.20129H21.8125L21.757 9.82304L21.1877 16.2115H16V13.8933V13.8933Z" fill="white"/>
<path d="M16.0144 19.9135L16.0039 19.9165L13.4224 19.219L13.2574 17.3702H10.9302L11.2549 21.01L16.0032 22.3285L16.0144 22.3255V19.9135V19.9135Z" fill="#EBEBEB"/>
<path d="M18.8701 16.1133L18.5911 19.2175L16.0059 19.915V22.327L20.7579 21.01L20.7931 20.6185L21.1959 16.1133H18.8701V16.1133Z" fill="white"/>
<path d="M16.0084 9.20129V11.5195H10.4089L10.3624 10.9983L10.2567 9.82304L10.2012 9.20129H16.0084V9.20129ZM16.0002 13.8933V16.2115H13.4509L13.4044 15.6903L13.2994 14.515L13.2439 13.8933H16.0002V13.8933Z" fill="#EBEBEB"/>
</g>
<path d="M55.008 7.732C55.072 7.556 55.104 7.372 55.104 7.18C55.104 6.94 55.056 6.724 54.96 6.532C54 6.42 53.056 6.364 52.128 6.364C50.768 6.364 49.544 6.412 48.456 6.508C47.208 6.62 46.12 6.9 45.192 7.348C44.712 7.588 44.336 7.908 44.064 8.308C43.808 8.708 43.68 9.164 43.68 9.676V20.572C43.68 21.452 43.808 22.124 44.064 22.588C44.336 23.052 44.768 23.38 45.36 23.572C45.968 23.764 46.824 23.86 47.928 23.86C50.744 23.86 53.16 23.548 55.176 22.924C55.256 22.716 55.296 22.54 55.296 22.396C55.296 22.252 55.248 22.028 55.152 21.724C54.592 21.884 53.672 22.044 52.392 22.204C51.128 22.364 49.952 22.444 48.864 22.444C48.24 22.444 47.768 22.38 47.448 22.252C47.128 22.124 46.896 21.908 46.752 21.604C46.624 21.284 46.56 20.828 46.56 20.236V9.796C46.544 8.836 46.944 8.244 47.76 8.02C48.8 7.732 50.344 7.588 52.392 7.588C53.656 7.588 54.528 7.636 55.008 7.732ZM61.2047 8.86C61.2047 8.444 61.4527 8.132 61.9487 7.924C62.4287 7.716 63.2927 7.612 64.5407 7.612C65.6927 7.612 66.6767 7.708 67.4927 7.9C67.5887 7.66 67.6367 7.404 67.6367 7.132C67.6367 6.94 67.6127 6.748 67.5647 6.556C66.3167 6.428 65.2607 6.364 64.3967 6.364C60.2847 6.364 58.2287 7.196 58.2287 8.86C58.2127 9.644 58.4847 10.476 59.0447 11.356L64.0367 18.796C64.7887 19.964 65.1647 20.772 65.1647 21.22C65.1647 21.796 64.9167 22.164 64.4207 22.324C63.8927 22.5 62.8527 22.588 61.3007 22.588C60.1967 22.588 59.0767 22.508 57.9407 22.348C57.8607 22.588 57.8207 22.796 57.8207 22.972C57.8207 23.212 57.8687 23.444 57.9647 23.668C60.0287 23.812 61.5007 23.884 62.3807 23.884C66.2367 23.884 68.2047 22.98 68.2847 21.172C68.2847 20.964 68.2607 20.74 68.2127 20.5C68.1487 20.26 68.0367 19.98 67.8767 19.66C67.7167 19.324 67.6127 19.108 67.5647 19.012C67.3247 18.628 67.0047 18.148 66.6047 17.572C66.2207 16.98 65.9407 16.556 65.7647 16.3L62.3807 11.356C61.5967 10.188 61.2047 9.356 61.2047 8.86ZM74.34 8.86C74.34 8.444 74.588 8.132 75.084 7.924C75.564 7.716 76.428 7.612 77.676 7.612C78.828 7.612 79.812 7.708 80.628 7.9C80.724 7.66 80.772 7.404 80.772 7.132C80.772 6.94 80.748 6.748 80.7 6.556C79.452 6.428 78.396 6.364 77.532 6.364C73.42 6.364 71.364 7.196 71.364 8.86C71.348 9.644 71.62 10.476 72.18 11.356L77.172 18.796C77.924 19.964 78.3 20.772 78.3 21.22C78.3 21.796 78.052 22.164 77.556 22.324C77.028 22.5 75.988 22.588 74.436 22.588C73.332 22.588 72.212 22.508 71.076 22.348C70.996 22.588 70.956 22.796 70.956 22.972C70.956 23.212 71.004 23.444 71.1 23.668C73.164 23.812 74.636 23.884 75.516 23.884C79.372 23.884 81.34 22.98 81.42 21.172C81.42 20.964 81.396 20.74 81.348 20.5C81.284 20.26 81.172 19.98 81.012 19.66C80.852 19.324 80.748 19.108 80.7 19.012C80.46 18.628 80.14 18.148 79.74 17.572C79.356 16.98 79.076 16.556 78.9 16.3L75.516 11.356C74.732 10.188 74.34 9.356 74.34 8.86Z" fill="white"/>
<defs>
<filter id="filter0_ii_19_194" x="-2" y="-2" width="36" height="36" filterUnits="userSpaceOnUse" color-interpolation-filters="sRGB">
<feFlood flood-opacity="0" result="BackgroundImageFix"/>
<feBlend mode="normal" in="SourceGraphic" in2="BackgroundImageFix" result="shape"/>
<feColorMatrix in="SourceAlpha" type="matrix" values="0 0 0 0 0 0 0 0 0 0 0 0 0 0 0 0 0 0 127 0" result="hardAlpha"/>
<feOffset dx="2" dy="2"/>
<feGaussianBlur stdDeviation="2"/>
<feComposite in2="hardAlpha" operator="arithmetic" k2="-1" k3="1"/>
<feColorMatrix type="matrix" values="0 0 0 0 0.171811 0 0 0 0 0.353077 0 0 0 0 0.483218 0 0 0 1 0"/>
<feBlend mode="normal" in2="shape" result="effect1_innerShadow_19_194"/>
<feColorMatrix in="SourceAlpha" type="matrix" values="0 0 0 0 0 0 0 0 0 0 0 0 0 0 0 0 0 0 127 0" result="hardAlpha"/>
<feOffset dx="-2" dy="-2"/>
<feGaussianBlur stdDeviation="2.5"/>
<feComposite in2="hardAlpha" operator="arithmetic" k2="-1" k3="1"/>
<feColorMatrix type="matrix" values="0 0 0 0 0.0394684 0 0 0 0 0.111016 0 0 0 0 0.162384 0 0 0 1 0"/>
<feBlend mode="normal" in2="effect1_innerShadow_19_194" result="effect2_innerShadow_19_194"/>
</filter>
</defs>
</svg>
