<svg width="172" height="32" viewBox="0 0 172 32" fill="none" xmlns="http://www.w3.org/2000/svg">
<rect width="172" height="32" rx="4" fill="#153C58"/>
<g filter="url(#filter0_ii_19_208)">
<rect width="32" height="32" rx="4" fill="#153851"/>
<path d="M5.5 5.5H26.5V26.5H5.5V5.5Z" fill="#F5DE19"/>
<path d="M19.6066 21.9063C19.7855 22.2697 20.0635 22.5752 20.4085 22.7875C20.7535 22.9999 21.1515 23.1104 21.5566 23.1063C22.3741 23.1063 22.8968 22.6975 22.8968 22.1313C22.8968 21.4563 22.3598 21.2148 21.4598 20.821L20.9663 20.6095C19.5413 20.0028 18.5963 19.243 18.5963 17.6365C18.5963 16.1568 19.7213 15.0295 21.4861 15.0295C22.0573 14.9883 22.6281 15.1162 23.1272 15.3972C23.6263 15.6782 24.0316 16.0999 24.2926 16.6098L22.7498 17.596C22.6493 17.3432 22.4744 17.1269 22.2481 16.9759C22.0219 16.8248 21.7551 16.746 21.4831 16.75C21.3644 16.7382 21.2445 16.7511 21.1311 16.7881C21.0177 16.8251 20.9133 16.8853 20.8245 16.9649C20.7356 17.0445 20.6644 17.1418 20.6152 17.2504C20.566 17.3591 20.54 17.4768 20.5388 17.596C20.5388 18.1878 20.9056 18.4278 21.7523 18.796L22.2458 19.0075C23.9228 19.7268 24.8708 20.4595 24.8708 22.1073C24.8708 23.884 23.4751 24.8575 21.6008 24.8575C20.8705 24.9041 20.1424 24.7383 19.5043 24.3802C18.8661 24.022 18.3453 23.4869 18.0046 22.8393L19.6066 21.9063ZM12.6353 22.0773C12.9451 22.627 13.2271 23.092 13.9051 23.092C14.5531 23.092 14.9626 22.8385 14.9626 21.8523V15.142H16.9358V21.8785C16.9358 23.9215 15.7358 24.8515 13.9891 24.8515C13.3716 24.8853 12.7584 24.7314 12.2301 24.4102C11.7017 24.0889 11.283 23.6153 11.0288 23.0515L12.6353 22.0773Z" fill="black"/>
</g>
<path d="M41.76 28.996C42.832 28.996 43.856 28.916 44.832 28.756C45.616 28.58 46.184 28.292 46.536 27.892C46.888 27.492 47.064 26.94 47.064 26.236V7.42C47.08 7.084 47.048 6.852 46.968 6.724C46.904 6.58 46.76 6.492 46.536 6.46C46.328 6.412 45.968 6.388 45.456 6.388C44.464 6.388 43.44 6.54 42.384 6.844C42.336 6.988 42.312 7.124 42.312 7.252C42.312 7.444 42.344 7.596 42.408 7.708L43.92 7.66C44.096 7.66 44.184 8.1 44.184 8.98V26.14C44.184 26.716 44.064 27.116 43.824 27.34C43.6 27.58 43.152 27.74 42.48 27.82L41.736 27.868C41.656 27.996 41.616 28.164 41.616 28.372C41.616 28.452 41.64 28.572 41.688 28.732L41.76 28.996ZM63.2438 23.356C63.2918 23.212 63.3158 23.076 63.3158 22.948C63.3158 22.756 63.2838 22.604 63.2198 22.492L61.5638 22.54C61.3878 22.54 61.2998 22.1 61.2998 21.22V12.916C61.2998 12.292 61.0998 11.844 60.6998 11.572C60.3158 11.3 59.6918 11.164 58.8278 11.164C56.1558 11.164 53.8038 11.484 51.7718 12.124C51.7078 12.236 51.6758 12.396 51.6758 12.604C51.6758 12.812 51.7158 13.012 51.7958 13.204C52.1638 13.092 52.9318 12.924 54.0998 12.7C55.4438 12.476 56.3398 12.364 56.7878 12.364C57.5078 12.364 57.9798 12.46 58.2038 12.652C58.4438 12.844 58.5638 13.244 58.5638 13.852V15.724C56.9638 15.804 55.2758 15.98 53.4998 16.252C52.7638 16.412 52.2278 16.684 51.8918 17.068C51.5558 17.436 51.3878 17.956 51.3878 18.628V21.988C51.3878 22.66 51.5718 23.132 51.9398 23.404C52.3078 23.676 52.9318 23.812 53.8118 23.812C55.1398 23.812 56.7238 23.548 58.5638 23.02C58.5638 23.26 58.5958 23.428 58.6598 23.524C58.7238 23.636 58.8518 23.708 59.0438 23.74C59.2518 23.788 59.5718 23.812 60.0038 23.812C61.1398 23.812 62.2198 23.66 63.2438 23.356ZM58.5638 21.94C57.3638 22.292 56.3878 22.468 55.6358 22.468C54.6278 22.468 54.1238 22.108 54.1238 21.388V18.724C54.1238 18.164 54.2278 17.804 54.4358 17.644C54.7238 17.404 55.2678 17.212 56.0678 17.068C56.8518 16.924 57.6838 16.836 58.5638 16.804V21.94ZM66.7453 12.436C66.9213 12.436 67.0093 12.876 67.0093 13.756V21.172C67.0093 21.684 67.0653 22.108 67.1773 22.444C67.3053 22.764 67.5133 23.02 67.8013 23.212C68.0733 23.42 68.4333 23.564 68.8813 23.644C69.3453 23.74 69.9373 23.788 70.6573 23.788C72.9613 23.788 74.6093 23.516 75.6013 22.972C76.1133 22.7 76.4813 22.356 76.7053 21.94C76.9453 21.508 77.0653 20.996 77.0653 20.404V12.988C77.0653 12.636 77.0493 12.364 77.0173 12.172C77.0013 11.98 76.9373 11.812 76.8253 11.668C76.5533 11.348 76.0093 11.188 75.1933 11.188C74.3293 11.188 73.3773 11.34 72.3373 11.644C72.3213 11.74 72.3133 11.844 72.3133 11.956C72.3133 12.18 72.3613 12.404 72.4573 12.628C72.9693 12.5 73.4573 12.436 73.9213 12.436C74.0973 12.436 74.2093 12.516 74.2573 12.676C74.3053 12.836 74.3293 13.14 74.3293 13.588V20.308C74.3293 21.028 74.2093 21.564 73.9693 21.916C73.7453 22.252 73.4013 22.476 72.9373 22.588C72.4733 22.7 71.8013 22.756 70.9213 22.756C70.4733 22.756 70.1613 22.62 69.9853 22.348C69.8253 22.076 69.7453 21.596 69.7453 20.908V12.196C69.7453 11.876 69.7373 11.676 69.7213 11.596C69.6733 11.372 69.4653 11.236 69.0973 11.188C68.9693 11.172 68.7053 11.164 68.3053 11.164C67.1693 11.164 66.0893 11.316 65.0653 11.62C65.0173 11.764 64.9933 11.9 64.9933 12.028C64.9933 12.22 65.0253 12.372 65.0893 12.484L66.7453 12.436ZM93.03 23.356C93.078 23.212 93.102 23.076 93.102 22.948C93.102 22.756 93.07 22.604 93.006 22.492L91.35 22.54C91.174 22.54 91.086 22.1 91.086 21.22V12.916C91.086 12.292 90.886 11.844 90.486 11.572C90.102 11.3 89.478 11.164 88.614 11.164C85.942 11.164 83.59 11.484 81.558 12.124C81.494 12.236 81.462 12.396 81.462 12.604C81.462 12.812 81.502 13.012 81.582 13.204C81.95 13.092 82.718 12.924 83.886 12.7C85.23 12.476 86.126 12.364 86.574 12.364C87.294 12.364 87.766 12.46 87.99 12.652C88.23 12.844 88.35 13.244 88.35 13.852V15.724C86.75 15.804 85.062 15.98 83.286 16.252C82.55 16.412 82.014 16.684 81.678 17.068C81.342 17.436 81.174 17.956 81.174 18.628V21.988C81.174 22.66 81.358 23.132 81.726 23.404C82.094 23.676 82.718 23.812 83.598 23.812C84.926 23.812 86.51 23.548 88.35 23.02C88.35 23.26 88.382 23.428 88.446 23.524C88.51 23.636 88.638 23.708 88.83 23.74C89.038 23.788 89.358 23.812 89.79 23.812C90.926 23.812 92.006 23.66 93.03 23.356ZM88.35 21.94C87.15 22.292 86.174 22.468 85.422 22.468C84.414 22.468 83.91 22.108 83.91 21.388V18.724C83.91 18.164 84.014 17.804 84.222 17.644C84.51 17.404 85.054 17.212 85.854 17.068C86.638 16.924 87.47 16.836 88.35 16.804V21.94ZM95.3556 23.692C96.2036 23.772 97.3796 23.812 98.8836 23.812C100.116 23.812 101.116 23.644 101.884 23.308C102.668 22.956 103.06 22.436 103.06 21.748C103.06 21.108 102.788 20.348 102.244 19.468L98.8836 14.164C98.6276 13.796 98.4996 13.476 98.4996 13.204C98.4996 12.564 99.1156 12.244 100.348 12.244C101.276 12.244 101.964 12.276 102.412 12.34C102.492 12.132 102.532 11.956 102.532 11.812C102.532 11.636 102.484 11.452 102.388 11.26C101.86 11.196 101.132 11.164 100.204 11.164C97.1476 11.164 95.6196 11.844 95.6196 13.204C95.6196 13.604 95.6756 13.956 95.7876 14.26C95.8996 14.564 96.1476 15.004 96.5316 15.58L99.8916 20.884C100.116 21.3 100.228 21.588 100.228 21.748C100.228 22.132 100.068 22.388 99.7476 22.516C99.4116 22.66 98.8356 22.732 98.0196 22.732C96.7556 22.732 95.8596 22.692 95.3316 22.612C95.2676 22.756 95.2356 22.932 95.2356 23.14C95.2356 23.348 95.2756 23.532 95.3556 23.692ZM115.489 11.836C115.489 11.676 115.425 11.484 115.297 11.26C114.785 11.196 114.153 11.164 113.401 11.164C111.641 11.164 110.073 11.364 108.697 11.764C107.897 12.052 107.361 12.372 107.089 12.724C106.833 13.06 106.705 13.596 106.705 14.332V22.06C106.705 22.7 106.913 23.156 107.329 23.428C107.761 23.684 108.457 23.812 109.417 23.812C111.673 23.812 113.745 23.492 115.633 22.852C115.697 22.74 115.729 22.58 115.729 22.372C115.729 22.1 115.689 21.9 115.609 21.772C115.209 21.932 114.521 22.116 113.545 22.324C112.569 22.516 111.793 22.612 111.217 22.612C110.497 22.612 110.017 22.516 109.777 22.324C109.553 22.132 109.441 21.732 109.441 21.124V14.428C109.441 13.9 109.497 13.532 109.609 13.324C109.721 13.116 109.961 12.94 110.329 12.796C111.241 12.444 112.305 12.268 113.521 12.268C114.049 12.268 114.649 12.308 115.321 12.388C115.433 12.18 115.489 11.996 115.489 11.836ZM119.71 12.436C119.886 12.436 119.974 12.876 119.974 13.756V22.78C119.958 23.116 119.974 23.356 120.022 23.5C120.086 23.628 120.214 23.708 120.406 23.74C120.598 23.788 120.934 23.812 121.414 23.812C122.518 23.812 123.598 23.66 124.654 23.356C124.702 23.212 124.726 23.076 124.726 22.948C124.726 22.756 124.694 22.604 124.63 22.492L122.974 22.54C122.798 22.54 122.71 22.1 122.71 21.22V13.276C123.638 12.892 124.35 12.7 124.846 12.7C125.47 12.7 125.782 12.996 125.782 13.588V15.58C125.782 15.852 125.918 15.988 126.19 15.988C126.878 15.988 127.526 15.9 128.134 15.724C128.39 15.628 128.518 15.468 128.518 15.244V12.988C128.518 12.332 128.334 11.868 127.966 11.596C127.598 11.308 126.974 11.164 126.094 11.164C125.422 11.164 124.294 11.508 122.71 12.196C122.726 11.86 122.702 11.628 122.638 11.5C122.59 11.356 122.47 11.268 122.278 11.236C122.086 11.188 121.75 11.164 121.27 11.164C120.166 11.164 119.086 11.316 118.03 11.62C117.982 11.764 117.958 11.9 117.958 12.028C117.958 12.22 117.99 12.372 118.054 12.484L119.71 12.436ZM132.231 8.428C132.199 8.972 132.327 9.228 132.615 9.196L134.487 9.124C134.695 9.092 134.823 9.028 134.871 8.932C134.935 8.836 134.967 8.652 134.967 8.38V7.156C134.999 6.612 134.871 6.356 134.583 6.388L132.711 6.46C132.503 6.492 132.367 6.556 132.303 6.652C132.255 6.748 132.231 6.932 132.231 7.204V8.428ZM137.391 23.356C137.439 23.212 137.463 23.076 137.463 22.948C137.463 22.756 137.431 22.604 137.367 22.492H135.687C135.527 22.492 135.447 22.068 135.447 21.22V12.196C135.463 11.86 135.439 11.628 135.375 11.5C135.327 11.356 135.207 11.268 135.015 11.236C134.823 11.188 134.487 11.164 134.007 11.164C132.903 11.164 131.823 11.316 130.767 11.62C130.719 11.764 130.695 11.9 130.695 12.028C130.695 12.22 130.727 12.372 130.791 12.484L132.447 12.436C132.623 12.436 132.711 12.876 132.711 13.756V22.78C132.695 23.116 132.711 23.356 132.759 23.5C132.823 23.628 132.951 23.708 133.143 23.74C133.335 23.788 133.671 23.812 134.151 23.812C135.255 23.812 136.335 23.66 137.391 23.356ZM141.129 12.436C141.305 12.436 141.393 12.876 141.393 13.756V28.876C141.393 29.148 141.529 29.284 141.801 29.284C142.489 29.284 143.137 29.196 143.745 29.02C144.001 28.924 144.129 28.764 144.129 28.54V23.62C145.985 23.556 147.777 23.356 149.505 23.02C150.929 22.78 151.633 22.004 151.617 20.692V12.988C151.617 12.332 151.433 11.868 151.065 11.596C150.697 11.308 150.073 11.164 149.193 11.164C149.033 11.164 148.761 11.18 148.377 11.212C147.737 11.292 147.193 11.388 146.745 11.5C146.377 11.58 146.201 11.62 146.217 11.62C145.977 11.668 145.577 11.772 145.017 11.932L144.129 12.196C144.145 11.86 144.121 11.628 144.057 11.5C144.009 11.356 143.889 11.268 143.697 11.236C143.505 11.188 143.169 11.164 142.689 11.164C141.585 11.164 140.505 11.316 139.449 11.62C139.401 11.764 139.377 11.9 139.377 12.028C139.377 12.22 139.409 12.372 139.473 12.484L141.129 12.436ZM144.129 13.3C145.905 12.836 147.041 12.604 147.537 12.604C148.433 12.604 148.881 12.932 148.881 13.588V20.644C148.881 21.156 148.777 21.508 148.569 21.7C148.361 21.892 147.929 22.052 147.273 22.18C146.505 22.34 145.457 22.46 144.129 22.54V13.3ZM161.672 23.356C161.72 23.212 161.744 23.076 161.744 22.948C161.744 22.756 161.712 22.604 161.648 22.492L159.992 22.54C159.816 22.54 159.728 22.1 159.728 21.22V12.412L161.648 12.268C161.712 12.156 161.744 11.996 161.744 11.788C161.744 11.66 161.704 11.46 161.624 11.188L159.728 11.332V7.54C159.728 7.268 159.592 7.132 159.32 7.132C158.632 7.132 157.984 7.22 157.376 7.396C157.12 7.492 156.992 7.652 156.992 7.876V11.5L155.216 11.62C155.152 11.732 155.12 11.892 155.12 12.1C155.12 12.228 155.16 12.428 155.24 12.7L156.992 12.58V22.78C156.976 23.116 156.992 23.356 157.04 23.5C157.104 23.628 157.232 23.708 157.424 23.74C157.616 23.788 157.952 23.812 158.432 23.812C159.536 23.812 160.616 23.66 161.672 23.356Z" fill="white"/>
<defs>
<filter id="filter0_ii_19_208" x="-2" y="-2" width="36" height="36" filterUnits="userSpaceOnUse" color-interpolation-filters="sRGB">
<feFlood flood-opacity="0" result="BackgroundImageFix"/>
<feBlend mode="normal" in="SourceGraphic" in2="BackgroundImageFix" result="shape"/>
<feColorMatrix in="SourceAlpha" type="matrix" values="0 0 0 0 0 0 0 0 0 0 0 0 0 0 0 0 0 0 127 0" result="hardAlpha"/>
<feOffset dx="2" dy="2"/>
<feGaussianBlur stdDeviation="2"/>
<feComposite in2="hardAlpha" operator="arithmetic" k2="-1" k3="1"/>
<feColorMatrix type="matrix" values="0 0 0 0 0.171811 0 0 0 0 0.353077 0 0 0 0 0.483218 0 0 0 1 0"/>
<feBlend mode="normal" in2="shape" result="effect1_innerShadow_19_208"/>
<feColorMatrix in="SourceAlpha" type="matrix" values="0 0 0 0 0 0 0 0 0 0 0 0 0 0 0 0 0 0 127 0" result="hardAlpha"/>
<feOffset dx="-2" dy="-2"/>
<feGaussianBlur stdDeviation="2.5"/>
<feComposite in2="hardAlpha" operator="arithmetic" k2="-1" k3="1"/>
<feColorMatrix type="matrix" values="0 0 0 0 0.0394684 0 0 0 0 0.111016 0 0 0 0 0.162384 0 0 0 1 0"/>
<feBlend mode="normal" in2="effect1_innerShadow_19_208" result="effect2_innerShadow_19_208"/>
</filter>
</defs>
</svg>
