<svg width="117" height="32" viewBox="0 0 117 32" fill="none" xmlns="http://www.w3.org/2000/svg">
<rect width="117" height="32" rx="4" fill="#153C58"/>
<g filter="url(#filter0_ii_19_167)">
<rect width="32" height="32" rx="4" fill="#153851"/>
<g clip-path="url(#clip0_19_167)">
<path d="M23.7328 11.7711C23.4774 11.6727 23.2198 11.5815 22.9603 11.4977C23.0039 11.2977 23.044 11.1001 23.0796 10.906C23.6644 7.71852 23.2821 5.15063 21.9763 4.30516C20.7242 3.49463 18.6767 4.33979 16.6087 6.36052C16.4049 6.56003 16.2056 6.76529 16.0111 6.9761C15.8808 6.83592 15.7483 6.69846 15.6135 6.56379C13.4462 4.40316 11.2738 3.49252 9.96934 4.34042C8.71844 5.15347 8.34803 7.56747 8.87453 10.5883C8.92691 10.8875 8.98606 11.1851 9.05191 11.4809C8.74441 11.5791 8.44769 11.6835 8.16372 11.7946C5.62272 12.7894 4 14.3482 4 15.9652C4 17.6352 5.74206 19.3102 8.38863 20.3259C8.60319 20.4079 8.81954 20.4839 9.03747 20.5538C8.96669 20.8724 8.90385 21.1931 8.84903 21.5157C8.34709 24.4841 8.73906 26.8411 9.98659 27.6489C11.2751 28.4833 13.4377 27.6258 15.5434 25.5589C15.7142 25.3909 15.8812 25.2181 16.0443 25.0407C16.255 25.269 16.4713 25.4906 16.693 25.7054C18.7328 27.6761 20.7473 28.4719 21.9936 27.6618C23.2809 26.8251 23.6993 24.2931 23.1561 21.2125C23.1133 20.9712 23.0654 20.731 23.0122 20.4923C23.1641 20.4418 23.3132 20.3898 23.4585 20.3357C26.2098 19.3122 28 17.6575 28 15.9652C28 14.3423 26.3249 12.7729 23.7328 11.7711V11.7711ZM23.1361 19.2431C23.0048 19.2918 22.8702 19.3388 22.7329 19.3846C22.4292 18.3049 22.0193 17.1569 21.5177 15.9707C21.9963 14.8128 22.3905 13.6795 22.6857 12.6068C22.9312 12.6866 23.1694 12.7707 23.3991 12.8595C25.6201 13.718 26.9747 14.9872 26.9747 15.9652C26.9747 17.0068 25.5117 18.3592 23.1361 19.2431V19.2431ZM22.1504 21.4361C22.3906 22.7982 22.4248 24.0298 22.2657 24.9926C22.1228 25.8578 21.8354 26.4345 21.4799 26.6656C20.7236 27.1572 19.1061 26.5182 17.3617 24.8327C17.1555 24.6331 16.9543 24.427 16.7582 24.2148C17.4346 23.3844 18.1104 22.4191 18.77 21.3468C19.9303 21.2313 21.0264 21.0422 22.0204 20.7842C22.0683 21.0003 22.1116 21.2177 22.1504 21.4361V21.4361ZM12.1821 26.5806C11.4432 26.8736 10.8546 26.882 10.4988 26.6517C9.74181 26.1615 9.42709 24.2689 9.85637 21.7304C9.9074 21.4304 9.96583 21.1321 10.0316 20.8358C11.0147 21.08 12.1028 21.2556 13.2658 21.3615C13.9299 22.4106 14.6252 23.3749 15.326 24.2194C15.1771 24.3812 15.0247 24.5388 14.8688 24.6922C13.9376 25.6061 13.0045 26.2545 12.1821 26.5806V26.5806ZM8.72031 19.2366C7.55003 18.7875 6.58356 18.2038 5.92113 17.5668C5.32581 16.9945 5.02534 16.4262 5.02534 15.9652C5.02534 14.9839 6.32819 13.7323 8.50122 12.8817C8.76494 12.7785 9.04094 12.6812 9.32734 12.5898C9.62772 13.6866 10.0217 14.8335 10.4971 15.9932C10.0155 17.17 9.61591 18.3352 9.31262 19.4449C9.1137 19.381 8.9162 19.3115 8.72031 19.2366V19.2366ZM9.88075 10.3672C9.42972 7.77905 9.72925 5.82674 10.4831 5.33674C11.286 4.81484 13.0614 5.55895 14.9327 7.42463C15.0548 7.54657 15.1748 7.67097 15.2928 7.79779C14.5955 8.63852 13.9066 9.59568 13.2483 10.6386C12.1196 10.7561 11.0391 10.9447 10.0457 11.1975C9.98455 10.9223 9.92953 10.6455 9.88075 10.3673V10.3672ZM20.2333 13.2375C19.9986 12.7824 19.7553 12.3331 19.5034 11.8898C20.2692 11.9985 21.0029 12.1428 21.6918 12.3193C21.485 13.0637 21.2272 13.8419 20.9238 14.6398C20.7019 14.1672 20.4717 13.6997 20.2333 13.2375V13.2375ZM16.0115 8.62052C16.4844 9.19579 16.958 9.838 17.4239 10.5348C16.4789 10.4847 15.5323 10.4845 14.5873 10.5342C15.0536 9.84379 15.5313 9.20242 16.0115 8.62052ZM11.7627 13.2454C11.5272 13.7039 11.3013 14.1685 11.0852 14.6388C10.7867 13.8438 10.5312 13.062 10.3226 12.3071C11.0073 12.1351 11.7376 11.9944 12.4984 11.8877C12.2438 12.3337 11.9984 12.7863 11.7627 13.2453V13.2454ZM12.5203 20.1245C11.7342 20.026 10.993 19.8926 10.3084 19.7253C10.5203 18.9568 10.7814 18.1584 11.0864 17.3463C11.3034 17.817 11.5302 18.2819 11.7667 18.7406C12.0099 19.2122 12.2617 19.6741 12.5203 20.1245ZM16.0398 23.3908C15.5538 22.8022 15.0692 22.1509 14.5958 21.4505C15.0554 21.4707 15.5238 21.4811 16 21.4811C16.4892 21.4811 16.9728 21.4687 17.4487 21.4449C16.9814 22.158 16.5095 22.8102 16.0398 23.3908ZM20.9334 17.3048C21.2542 18.1259 21.5246 18.9201 21.7393 19.6754C21.0435 19.8537 20.2922 19.9973 19.5005 20.1039C19.7542 19.6524 19.9998 19.1952 20.2373 18.7327C20.4788 18.2626 20.7108 17.7865 20.9334 17.3048V17.3048ZM19.3492 18.1576C18.9857 18.8667 18.6017 19.5623 18.1979 20.2434C17.4664 20.3015 16.7333 20.3304 16 20.33C15.2531 20.33 14.5266 20.3039 13.8271 20.2529C13.4127 19.5735 13.0214 18.8766 12.654 18.1639H12.6541C12.2884 17.455 11.9468 16.7307 11.63 15.9926C11.946 15.2544 12.2865 14.5298 12.651 13.8203L12.6509 13.8204C13.0152 13.1108 13.4034 12.4169 13.8146 11.7403C14.5283 11.6797 15.2602 11.6481 15.9999 11.6481H16C16.7431 11.6481 17.4759 11.68 18.1894 11.7411C18.5965 12.4166 18.9822 13.1081 19.3458 13.8142C19.7115 14.5221 20.0566 15.2432 20.3805 15.9763C20.0599 16.7169 19.7159 17.4445 19.3492 18.1576V18.1576ZM21.4642 5.30242C22.2678 5.82284 22.5804 7.92147 22.0755 10.6736C22.0432 10.8492 22.007 11.028 21.9677 11.2094C20.9718 10.9513 19.8906 10.7594 18.7586 10.6401C18.0992 9.58568 17.4158 8.62705 16.7298 7.79716C16.9096 7.60258 17.0937 7.41305 17.2818 7.22874C19.0537 5.49747 20.7097 4.81389 21.4642 5.30242V5.30242ZM16 13.5588C17.1836 13.5588 18.1431 14.6362 18.1431 15.9652C18.1431 17.2941 17.1836 18.3715 16 18.3715C14.8164 18.3715 13.8569 17.2941 13.8569 15.9652C13.8569 14.6362 14.8164 13.5588 16 13.5588V13.5588Z" fill="#00D8FF"/>
</g>
</g>
<path d="M42.792 8.716C43.496 8.476 44.64 8.244 46.224 8.02C47.824 7.78 49.296 7.66 50.64 7.66C51.248 7.66 51.712 7.732 52.032 7.876C52.368 8.004 52.6 8.236 52.728 8.572C52.872 8.892 52.944 9.356 52.944 9.964V12.076C52.944 12.46 52.896 12.756 52.8 12.964C52.704 13.172 52.536 13.332 52.296 13.444C52.072 13.54 51.72 13.636 51.24 13.732C50.168 13.94 48.736 14.084 46.944 14.164V9.652C46.944 9.364 46.8 9.22 46.512 9.22C45.728 9.22 45.048 9.316 44.472 9.508C44.2 9.604 44.064 9.772 44.064 10.012V22.78C44.048 23.116 44.072 23.356 44.136 23.5C44.216 23.628 44.36 23.708 44.568 23.74C44.792 23.788 45.16 23.812 45.672 23.812C46.664 23.812 47.688 23.66 48.744 23.356C48.792 23.212 48.816 23.076 48.816 22.948C48.816 22.756 48.784 22.604 48.72 22.492L47.208 22.54C47.032 22.54 46.944 22.1 46.944 21.22V15.292C47.568 15.292 48.504 15.244 49.752 15.148L53.184 22.78C53.328 23.132 53.448 23.372 53.544 23.5C53.656 23.628 53.808 23.708 54 23.74C54.208 23.788 54.552 23.812 55.032 23.812C56.12 23.812 57.192 23.66 58.248 23.356C58.296 23.228 58.32 23.1 58.32 22.972C58.32 22.844 58.288 22.684 58.224 22.492L56.568 22.54C56.456 22.54 56.36 22.5 56.28 22.42C56.184 22.324 56.104 22.212 56.04 22.084L55.92 21.844C55.872 21.764 55.776 21.556 55.632 21.22L52.752 14.812C53.312 14.732 53.592 14.692 53.592 14.692C54.376 14.516 54.944 14.228 55.296 13.828C55.648 13.428 55.824 12.876 55.824 12.172V9.628C55.824 8.78 55.696 8.124 55.44 7.66C55.2 7.196 54.8 6.868 54.24 6.676C53.68 6.484 52.896 6.388 51.888 6.388C48.432 6.388 45.384 6.764 42.744 7.516C42.68 7.66 42.648 7.852 42.648 8.092C42.648 8.332 42.696 8.54 42.792 8.716ZM70.3718 21.892C69.8758 22.02 69.0758 22.172 67.9718 22.348C66.8838 22.524 66.0198 22.612 65.3798 22.612C64.6598 22.612 64.1798 22.516 63.9398 22.324C63.7158 22.132 63.6038 21.732 63.6038 21.124V18.388C65.0598 18.292 66.6758 18.108 68.4518 17.836C69.1878 17.676 69.7238 17.412 70.0598 17.044C70.3958 16.66 70.5638 16.132 70.5638 15.46V13.756C70.5638 13.068 70.4678 12.54 70.2758 12.172C70.0838 11.804 69.7638 11.548 69.3158 11.404C68.8838 11.244 68.2598 11.164 67.4438 11.164C65.1398 11.164 63.4758 11.356 62.4518 11.74C61.3958 12.14 60.8678 12.836 60.8678 13.828V22.06C60.8678 22.684 61.0598 23.132 61.4438 23.404C61.8438 23.676 62.4758 23.812 63.3398 23.812C65.8998 23.812 68.2518 23.532 70.3958 22.972C70.4598 22.86 70.4918 22.7 70.4918 22.492C70.4918 22.252 70.4518 22.052 70.3718 21.892ZM63.6038 13.924C63.5718 13.284 63.7558 12.836 64.1558 12.58C64.5558 12.308 65.3158 12.172 66.4358 12.172C66.9638 12.172 67.3238 12.3 67.5158 12.556C67.7238 12.796 67.8278 13.252 67.8278 13.924V15.388C67.8278 15.9 67.7238 16.252 67.5158 16.444C67.3078 16.636 66.8758 16.804 66.2198 16.948C65.5478 17.076 64.6758 17.188 63.6038 17.284V13.924ZM86.0588 23.356C86.1068 23.212 86.1308 23.076 86.1308 22.948C86.1308 22.756 86.0988 22.604 86.0348 22.492L84.3788 22.54C84.2028 22.54 84.1148 22.1 84.1148 21.22V12.916C84.1148 12.292 83.9148 11.844 83.5148 11.572C83.1308 11.3 82.5068 11.164 81.6428 11.164C78.9708 11.164 76.6188 11.484 74.5868 12.124C74.5228 12.236 74.4908 12.396 74.4908 12.604C74.4908 12.812 74.5308 13.012 74.6108 13.204C74.9788 13.092 75.7468 12.924 76.9148 12.7C78.2588 12.476 79.1548 12.364 79.6028 12.364C80.3228 12.364 80.7948 12.46 81.0188 12.652C81.2588 12.844 81.3788 13.244 81.3788 13.852V15.724C79.7788 15.804 78.0908 15.98 76.3148 16.252C75.5788 16.412 75.0428 16.684 74.7068 17.068C74.3708 17.436 74.2028 17.956 74.2028 18.628V21.988C74.2028 22.66 74.3868 23.132 74.7548 23.404C75.1228 23.676 75.7468 23.812 76.6268 23.812C77.9548 23.812 79.5388 23.548 81.3788 23.02C81.3788 23.26 81.4108 23.428 81.4748 23.524C81.5388 23.636 81.6668 23.708 81.8588 23.74C82.0668 23.788 82.3868 23.812 82.8188 23.812C83.9548 23.812 85.0348 23.66 86.0588 23.356ZM81.3788 21.94C80.1788 22.292 79.2028 22.468 78.4508 22.468C77.4428 22.468 76.9388 22.108 76.9388 21.388V18.724C76.9388 18.164 77.0428 17.804 77.2508 17.644C77.5388 17.404 78.0828 17.212 78.8828 17.068C79.6668 16.924 80.4988 16.836 81.3788 16.804V21.94ZM97.9843 11.836C97.9843 11.676 97.9203 11.484 97.7923 11.26C97.2803 11.196 96.6483 11.164 95.8963 11.164C94.1363 11.164 92.5683 11.364 91.1923 11.764C90.3923 12.052 89.8563 12.372 89.5843 12.724C89.3283 13.06 89.2003 13.596 89.2003 14.332V22.06C89.2003 22.7 89.4083 23.156 89.8243 23.428C90.2563 23.684 90.9523 23.812 91.9123 23.812C94.1683 23.812 96.2403 23.492 98.1283 22.852C98.1923 22.74 98.2243 22.58 98.2243 22.372C98.2243 22.1 98.1843 21.9 98.1043 21.772C97.7043 21.932 97.0163 22.116 96.0403 22.324C95.0643 22.516 94.2883 22.612 93.7123 22.612C92.9923 22.612 92.5123 22.516 92.2723 22.324C92.0483 22.132 91.9363 21.732 91.9363 21.124V14.428C91.9363 13.9 91.9923 13.532 92.1043 13.324C92.2163 13.116 92.4563 12.94 92.8243 12.796C93.7363 12.444 94.8003 12.268 96.0163 12.268C96.5443 12.268 97.1443 12.308 97.8163 12.388C97.9283 12.18 97.9843 11.996 97.9843 11.836ZM107.245 23.356C107.293 23.212 107.317 23.076 107.317 22.948C107.317 22.756 107.285 22.604 107.221 22.492L105.565 22.54C105.389 22.54 105.301 22.1 105.301 21.22V12.412L107.221 12.268C107.285 12.156 107.317 11.996 107.317 11.788C107.317 11.66 107.277 11.46 107.197 11.188L105.301 11.332V7.54C105.301 7.268 105.165 7.132 104.893 7.132C104.205 7.132 103.557 7.22 102.949 7.396C102.693 7.492 102.565 7.652 102.565 7.876V11.5L100.789 11.62C100.725 11.732 100.693 11.892 100.693 12.1C100.693 12.228 100.733 12.428 100.813 12.7L102.565 12.58V22.78C102.549 23.116 102.565 23.356 102.613 23.5C102.677 23.628 102.805 23.708 102.997 23.74C103.189 23.788 103.525 23.812 104.005 23.812C105.109 23.812 106.189 23.66 107.245 23.356Z" fill="white"/>
<defs>
<filter id="filter0_ii_19_167" x="-2" y="-2" width="36" height="36" filterUnits="userSpaceOnUse" color-interpolation-filters="sRGB">
<feFlood flood-opacity="0" result="BackgroundImageFix"/>
<feBlend mode="normal" in="SourceGraphic" in2="BackgroundImageFix" result="shape"/>
<feColorMatrix in="SourceAlpha" type="matrix" values="0 0 0 0 0 0 0 0 0 0 0 0 0 0 0 0 0 0 127 0" result="hardAlpha"/>
<feOffset dx="2" dy="2"/>
<feGaussianBlur stdDeviation="2"/>
<feComposite in2="hardAlpha" operator="arithmetic" k2="-1" k3="1"/>
<feColorMatrix type="matrix" values="0 0 0 0 0.171811 0 0 0 0 0.353077 0 0 0 0 0.483218 0 0 0 1 0"/>
<feBlend mode="normal" in2="shape" result="effect1_innerShadow_19_167"/>
<feColorMatrix in="SourceAlpha" type="matrix" values="0 0 0 0 0 0 0 0 0 0 0 0 0 0 0 0 0 0 127 0" result="hardAlpha"/>
<feOffset dx="-2" dy="-2"/>
<feGaussianBlur stdDeviation="2.5"/>
<feComposite in2="hardAlpha" operator="arithmetic" k2="-1" k3="1"/>
<feColorMatrix type="matrix" values="0 0 0 0 0.0394684 0 0 0 0 0.111016 0 0 0 0 0.162384 0 0 0 1 0"/>
<feBlend mode="normal" in2="effect1_innerShadow_19_167" result="effect2_innerShadow_19_167"/>
</filter>
<clipPath id="clip0_19_167">
<rect width="24" height="24" fill="white" transform="translate(4 4)"/>
</clipPath>
</defs>
</svg>
