<svg width="275" height="32" viewBox="0 0 275 32" fill="none" xmlns="http://www.w3.org/2000/svg">
<rect width="275" height="32" rx="4" fill="#153C58"/>
<g filter="url(#filter0_ii_19_228)">
<rect width="32" height="32" rx="4" fill="#153851"/>
<path d="M25.7574 7.77245L21.4329 5.69045C21.1887 5.57269 20.9139 5.53384 20.6466 5.57926C20.3793 5.62468 20.1328 5.75213 19.9411 5.94395L5.7849 18.8499C5.61314 19.0058 5.51033 19.2235 5.49908 19.4551C5.48783 19.6868 5.56906 19.9134 5.7249 20.0852C5.74365 20.1054 5.7624 20.1249 5.78265 20.1429L6.9384 21.1929C7.08942 21.3304 7.28382 21.4106 7.48782 21.4196C7.69183 21.4287 7.89256 21.366 8.05515 21.2424L25.1064 8.31245C25.2352 8.21471 25.3887 8.15487 25.5497 8.13966C25.7106 8.12444 25.8726 8.15446 26.0175 8.22632C26.1623 8.29819 26.2842 8.40906 26.3694 8.54644C26.4546 8.68382 26.4998 8.84227 26.4999 9.00395V8.9537C26.4999 8.70687 26.4302 8.46506 26.2988 8.25609C26.1675 8.04712 25.9798 7.87948 25.7574 7.77245V7.77245Z" fill="#0065A9"/>
<path d="M25.7574 24.2275L21.4329 26.3102C21.1886 26.4277 20.9139 26.4663 20.6467 26.4209C20.3795 26.3755 20.1329 26.2483 19.9411 26.0567L5.7849 13.15C5.61314 12.9941 5.51033 12.7764 5.49908 12.5448C5.48783 12.3131 5.56906 12.0865 5.7249 11.9147C5.74365 11.8945 5.7624 11.875 5.78265 11.857L6.9384 10.807C7.08958 10.669 7.28442 10.5884 7.48892 10.5793C7.69343 10.5703 7.89463 10.6333 8.0574 10.7575L25.1064 23.6875C25.2352 23.7852 25.3887 23.8451 25.5497 23.8603C25.7106 23.8755 25.8726 23.8455 26.0175 23.7736C26.1623 23.7017 26.2842 23.5909 26.3694 23.4535C26.4546 23.3161 26.4998 23.1577 26.4999 22.996V23.05C26.4991 23.2962 26.429 23.5371 26.2977 23.7454C26.1664 23.9536 25.9792 24.1207 25.7574 24.2275V24.2275Z" fill="#007ACC"/>
<path d="M21.4332 26.3103C21.1889 26.4277 20.9142 26.4664 20.647 26.421C20.3798 26.3755 20.1333 26.2483 19.9415 26.0568C20.0492 26.1631 20.1859 26.2352 20.3344 26.2642C20.4829 26.2931 20.6367 26.2776 20.7764 26.2195C20.9162 26.1615 21.0357 26.0635 21.12 25.9378C21.2042 25.8121 21.2496 25.6643 21.2502 25.513V6.48702C21.2504 6.33498 21.2054 6.18633 21.1209 6.0599C21.0365 5.93346 20.9164 5.83492 20.776 5.77678C20.6355 5.71863 20.4809 5.70348 20.3318 5.73325C20.1827 5.76302 20.0458 5.83638 19.9385 5.94402C20.1301 5.75227 20.3766 5.62481 20.6439 5.57926C20.9111 5.53372 21.1859 5.57233 21.4302 5.68977L25.754 7.76877C25.9771 7.87527 26.1655 8.04268 26.2976 8.25169C26.4296 8.4607 26.4999 8.70279 26.5002 8.95002V23.05C26.5003 23.297 26.4305 23.5391 26.299 23.7482C26.1676 23.9573 25.9796 24.125 25.757 24.232L21.4332 26.3103Z" fill="#1F9CF0"/>
</g>
<path d="M56.472 7.42C56.472 7.148 56.464 6.964 56.448 6.868C56.4 6.612 56.168 6.46 55.752 6.412C55.608 6.396 55.312 6.388 54.864 6.388C53.888 6.388 52.864 6.54 51.792 6.844C51.744 6.988 51.72 7.124 51.72 7.252C51.72 7.444 51.752 7.596 51.816 7.708L53.328 7.66C53.408 7.66 53.472 7.748 53.52 7.924C53.568 8.084 53.592 8.436 53.592 8.98V20.38C53.592 21.244 53.28 21.82 52.656 22.108C52.016 22.396 50.776 22.54 48.936 22.54C48.2 22.54 47.704 22.436 47.448 22.228C47.192 22.02 47.064 21.604 47.064 20.98V7.42C47.08 7.084 47.048 6.852 46.968 6.724C46.904 6.58 46.76 6.492 46.536 6.46C46.328 6.412 45.968 6.388 45.456 6.388C44.464 6.388 43.44 6.54 42.384 6.844C42.336 6.988 42.312 7.124 42.312 7.252C42.312 7.444 42.344 7.596 42.408 7.708L43.92 7.66C44.096 7.66 44.184 8.1 44.184 8.98V22.468C44.184 23.044 44.376 23.42 44.76 23.596C45.08 23.74 45.88 23.812 47.16 23.812L49.104 23.788C50.8 23.756 52.088 23.652 52.968 23.476C54.184 23.268 55.048 22.948 55.56 22.516C56.168 22.02 56.472 21.348 56.472 20.5V7.42ZM61.3879 8.428C61.3559 8.972 61.4839 9.228 61.7719 9.196L63.6439 9.124C63.8519 9.092 63.9799 9.028 64.0279 8.932C64.0919 8.836 64.1239 8.652 64.1239 8.38V7.156C64.1559 6.612 64.0279 6.356 63.7399 6.388L61.8679 6.46C61.6599 6.492 61.5239 6.556 61.4599 6.652C61.4119 6.748 61.3879 6.932 61.3879 7.204V8.428ZM66.5479 23.356C66.5959 23.212 66.6199 23.076 66.6199 22.948C66.6199 22.756 66.5879 22.604 66.5239 22.492H64.8439C64.6839 22.492 64.6039 22.068 64.6039 21.22V12.196C64.6199 11.86 64.5959 11.628 64.5319 11.5C64.4839 11.356 64.3639 11.268 64.1719 11.236C63.9799 11.188 63.6439 11.164 63.1639 11.164C62.0599 11.164 60.9799 11.316 59.9239 11.62C59.8759 11.764 59.8519 11.9 59.8519 12.028C59.8519 12.22 59.8839 12.372 59.9479 12.484L61.6039 12.436C61.7799 12.436 61.8679 12.876 61.8679 13.756V22.78C61.8519 23.116 61.8679 23.356 61.9159 23.5C61.9799 23.628 62.1079 23.708 62.2999 23.74C62.4919 23.788 62.8279 23.812 63.3079 23.812C64.4119 23.812 65.4919 23.66 66.5479 23.356ZM69.0381 23.692C69.8861 23.772 71.0621 23.812 72.5661 23.812C73.7981 23.812 74.7981 23.644 75.5661 23.308C76.3501 22.956 76.7421 22.436 76.7421 21.748C76.7421 21.108 76.4701 20.348 75.9261 19.468L72.5661 14.164C72.3101 13.796 72.1821 13.476 72.1821 13.204C72.1821 12.564 72.7981 12.244 74.0301 12.244C74.9581 12.244 75.6461 12.276 76.0941 12.34C76.1741 12.132 76.2141 11.956 76.2141 11.812C76.2141 11.636 76.1661 11.452 76.0701 11.26C75.5421 11.196 74.8141 11.164 73.8861 11.164C70.8301 11.164 69.3021 11.844 69.3021 13.204C69.3021 13.604 69.3581 13.956 69.4701 14.26C69.5821 14.564 69.8301 15.004 70.2141 15.58L73.5741 20.884C73.7981 21.3 73.9101 21.588 73.9101 21.748C73.9101 22.132 73.7501 22.388 73.4301 22.516C73.0941 22.66 72.5181 22.732 71.7021 22.732C70.4381 22.732 69.5421 22.692 69.0141 22.612C68.9501 22.756 68.9181 22.932 68.9181 23.14C68.9181 23.348 68.9581 23.532 69.0381 23.692ZM92.8918 23.356C92.9398 23.18 92.9638 23.044 92.9638 22.948C92.9638 22.724 92.9318 22.572 92.8678 22.492L91.2118 22.54C91.0838 22.54 91.0118 22.46 90.9958 22.3C90.9638 22.108 90.9478 21.748 90.9478 21.22V12.196C90.9638 11.86 90.9398 11.628 90.8758 11.5C90.8118 11.356 90.6838 11.268 90.4918 11.236C90.2998 11.188 89.9718 11.164 89.5078 11.164C88.4038 11.164 87.3238 11.316 86.2678 11.62C86.2198 11.764 86.1958 11.9 86.1958 12.028C86.1958 12.252 86.2278 12.404 86.2918 12.484L87.9478 12.436C88.1238 12.436 88.2118 12.876 88.2118 13.756V21.7C86.7718 22.148 85.7318 22.372 85.0918 22.372C84.1958 22.372 83.7478 22.044 83.7478 21.388V12.196C83.7638 11.86 83.7398 11.628 83.6758 11.5C83.6278 11.356 83.5078 11.268 83.3158 11.236C83.1238 11.188 82.7878 11.164 82.3078 11.164C81.2038 11.164 80.1238 11.316 79.0678 11.62C79.0198 11.764 78.9958 11.9 78.9958 12.028C78.9958 12.22 79.0278 12.372 79.0918 12.484L80.7478 12.436C80.9238 12.436 81.0118 12.876 81.0118 13.756V21.988C81.0118 22.644 81.1958 23.116 81.5638 23.404C81.9318 23.676 82.5558 23.812 83.4358 23.812C83.8998 23.812 84.4038 23.764 84.9478 23.668C85.4758 23.572 86.0038 23.444 86.5318 23.284L88.2118 22.78C88.1958 23.116 88.2118 23.356 88.2598 23.5C88.3238 23.628 88.4518 23.708 88.6438 23.74C88.8358 23.788 89.1718 23.812 89.6518 23.812C90.7558 23.812 91.8358 23.66 92.8918 23.356ZM107.595 23.356C107.643 23.212 107.667 23.076 107.667 22.948C107.667 22.756 107.635 22.604 107.571 22.492L105.915 22.54C105.739 22.54 105.651 22.1 105.651 21.22V12.916C105.651 12.292 105.451 11.844 105.051 11.572C104.667 11.3 104.043 11.164 103.179 11.164C100.507 11.164 98.155 11.484 96.123 12.124C96.059 12.236 96.027 12.396 96.027 12.604C96.027 12.812 96.067 13.012 96.147 13.204C96.515 13.092 97.283 12.924 98.451 12.7C99.795 12.476 100.691 12.364 101.139 12.364C101.859 12.364 102.331 12.46 102.555 12.652C102.795 12.844 102.915 13.244 102.915 13.852V15.724C101.315 15.804 99.627 15.98 97.851 16.252C97.115 16.412 96.579 16.684 96.243 17.068C95.907 17.436 95.739 17.956 95.739 18.628V21.988C95.739 22.66 95.923 23.132 96.291 23.404C96.659 23.676 97.283 23.812 98.163 23.812C99.491 23.812 101.075 23.548 102.915 23.02C102.915 23.26 102.947 23.428 103.011 23.524C103.075 23.636 103.203 23.708 103.395 23.74C103.603 23.788 103.923 23.812 104.355 23.812C105.491 23.812 106.571 23.66 107.595 23.356ZM102.915 21.94C101.715 22.292 100.739 22.468 99.987 22.468C98.979 22.468 98.475 22.108 98.475 21.388V18.724C98.475 18.164 98.579 17.804 98.787 17.644C99.075 17.404 99.619 17.212 100.419 17.068C101.203 16.924 102.035 16.836 102.915 16.804V21.94ZM115.849 23.356C115.897 23.212 115.921 23.076 115.921 22.948C115.921 22.756 115.889 22.604 115.825 22.492L114.169 22.54C113.993 22.54 113.905 22.1 113.905 21.22V7.42C113.921 7.084 113.897 6.852 113.833 6.724C113.785 6.58 113.665 6.492 113.473 6.46C113.281 6.412 112.945 6.388 112.465 6.388C111.361 6.388 110.281 6.54 109.225 6.844C109.177 6.988 109.153 7.124 109.153 7.252C109.153 7.444 109.185 7.596 109.249 7.708L110.905 7.66C111.081 7.66 111.169 8.1 111.169 8.98V22.78C111.153 23.116 111.169 23.356 111.217 23.5C111.281 23.628 111.409 23.708 111.601 23.74C111.793 23.788 112.129 23.812 112.609 23.812C113.713 23.812 114.793 23.66 115.849 23.356ZM128.462 8.86C128.462 8.444 128.71 8.132 129.206 7.924C129.686 7.716 130.55 7.612 131.798 7.612C132.95 7.612 133.934 7.708 134.75 7.9C134.846 7.66 134.894 7.404 134.894 7.132C134.894 6.94 134.87 6.748 134.822 6.556C133.574 6.428 132.518 6.364 131.654 6.364C127.542 6.364 125.486 7.196 125.486 8.86C125.47 9.644 125.742 10.476 126.302 11.356L131.294 18.796C132.046 19.964 132.422 20.772 132.422 21.22C132.422 21.796 132.174 22.164 131.678 22.324C131.15 22.5 130.11 22.588 128.558 22.588C127.454 22.588 126.334 22.508 125.198 22.348C125.118 22.588 125.078 22.796 125.078 22.972C125.078 23.212 125.126 23.444 125.222 23.668C127.286 23.812 128.758 23.884 129.638 23.884C133.494 23.884 135.462 22.98 135.542 21.172C135.542 20.964 135.518 20.74 135.47 20.5C135.406 20.26 135.294 19.98 135.134 19.66C134.974 19.324 134.87 19.108 134.822 19.012C134.582 18.628 134.262 18.148 133.862 17.572C133.478 16.98 133.198 16.556 133.022 16.3L129.638 11.356C128.854 10.188 128.462 9.356 128.462 8.86ZM144.435 23.356C144.483 23.212 144.507 23.076 144.507 22.948C144.507 22.756 144.475 22.604 144.411 22.492L142.755 22.54C142.579 22.54 142.491 22.1 142.491 21.22V12.412L144.411 12.268C144.475 12.156 144.507 11.996 144.507 11.788C144.507 11.66 144.467 11.46 144.387 11.188L142.491 11.332V7.54C142.491 7.268 142.355 7.132 142.083 7.132C141.395 7.132 140.747 7.22 140.139 7.396C139.883 7.492 139.755 7.652 139.755 7.876V11.5L137.979 11.62C137.915 11.732 137.883 11.892 137.883 12.1C137.883 12.228 137.923 12.428 138.003 12.7L139.755 12.58V22.78C139.739 23.116 139.755 23.356 139.803 23.5C139.867 23.628 139.995 23.708 140.187 23.74C140.379 23.788 140.715 23.812 141.195 23.812C142.299 23.812 143.379 23.66 144.435 23.356ZM160.665 23.356C160.713 23.18 160.737 23.044 160.737 22.948C160.737 22.724 160.705 22.572 160.641 22.492L158.985 22.54C158.857 22.54 158.785 22.46 158.769 22.3C158.737 22.108 158.721 21.748 158.721 21.22V12.196C158.737 11.86 158.713 11.628 158.649 11.5C158.585 11.356 158.457 11.268 158.265 11.236C158.073 11.188 157.745 11.164 157.281 11.164C156.177 11.164 155.097 11.316 154.041 11.62C153.993 11.764 153.969 11.9 153.969 12.028C153.969 12.252 154.001 12.404 154.065 12.484L155.721 12.436C155.897 12.436 155.985 12.876 155.985 13.756V21.7C154.545 22.148 153.505 22.372 152.865 22.372C151.969 22.372 151.521 22.044 151.521 21.388V12.196C151.537 11.86 151.513 11.628 151.449 11.5C151.401 11.356 151.281 11.268 151.089 11.236C150.897 11.188 150.561 11.164 150.081 11.164C148.977 11.164 147.897 11.316 146.841 11.62C146.793 11.764 146.769 11.9 146.769 12.028C146.769 12.22 146.801 12.372 146.865 12.484L148.521 12.436C148.697 12.436 148.785 12.876 148.785 13.756V21.988C148.785 22.644 148.969 23.116 149.337 23.404C149.705 23.676 150.329 23.812 151.209 23.812C151.673 23.812 152.177 23.764 152.721 23.668C153.249 23.572 153.777 23.444 154.305 23.284L155.985 22.78C155.969 23.116 155.985 23.356 156.033 23.5C156.097 23.628 156.225 23.708 156.417 23.74C156.609 23.788 156.945 23.812 157.425 23.812C158.529 23.812 159.609 23.66 160.665 23.356ZM176.16 23.356C176.208 23.212 176.232 23.076 176.232 22.948C176.232 22.756 176.2 22.604 176.136 22.492H174.456C174.296 22.492 174.216 22.068 174.216 21.22V7.42C174.232 7.084 174.208 6.852 174.144 6.724C174.096 6.58 173.976 6.492 173.784 6.46C173.592 6.412 173.256 6.388 172.776 6.388C171.672 6.388 170.592 6.54 169.536 6.844C169.488 6.988 169.464 7.124 169.464 7.252C169.464 7.444 169.496 7.596 169.56 7.708L171.216 7.66C171.392 7.66 171.48 8.1 171.48 8.98V11.164C169.416 11.228 167.624 11.404 166.104 11.692C164.696 11.948 163.992 12.708 163.992 13.972V21.988C163.992 22.644 164.176 23.116 164.544 23.404C164.912 23.676 165.536 23.812 166.416 23.812C166.576 23.812 166.848 23.796 167.232 23.764C167.872 23.684 168.424 23.588 168.888 23.476C169.464 23.332 170.032 23.18 170.592 23.02L171.48 22.78C171.464 23.116 171.48 23.356 171.528 23.5C171.592 23.628 171.72 23.708 171.912 23.74C172.104 23.788 172.44 23.812 172.92 23.812C174.024 23.812 175.104 23.66 176.16 23.356ZM171.48 21.7C169.896 22.148 168.76 22.372 168.072 22.372C167.176 22.372 166.728 22.044 166.728 21.388V13.996C166.728 13.564 166.832 13.252 167.04 13.06C167.264 12.868 167.696 12.708 168.336 12.58C168.96 12.452 170.008 12.348 171.48 12.268V21.7ZM179.569 8.428C179.537 8.972 179.665 9.228 179.953 9.196L181.825 9.124C182.033 9.092 182.161 9.028 182.209 8.932C182.273 8.836 182.305 8.652 182.305 8.38V7.156C182.337 6.612 182.209 6.356 181.921 6.388L180.049 6.46C179.841 6.492 179.705 6.556 179.641 6.652C179.593 6.748 179.569 6.932 179.569 7.204V8.428ZM184.729 23.356C184.777 23.212 184.801 23.076 184.801 22.948C184.801 22.756 184.769 22.604 184.705 22.492H183.025C182.865 22.492 182.785 22.068 182.785 21.22V12.196C182.801 11.86 182.777 11.628 182.713 11.5C182.665 11.356 182.545 11.268 182.353 11.236C182.161 11.188 181.825 11.164 181.345 11.164C180.241 11.164 179.161 11.316 178.105 11.62C178.057 11.764 178.033 11.9 178.033 12.028C178.033 12.22 178.065 12.372 178.129 12.484L179.785 12.436C179.961 12.436 180.049 12.876 180.049 13.756V22.78C180.033 23.116 180.049 23.356 180.097 23.5C180.161 23.628 180.289 23.708 180.481 23.74C180.673 23.788 181.009 23.812 181.489 23.812C182.593 23.812 183.673 23.66 184.729 23.356ZM198.211 13.756C198.211 13.068 198.115 12.54 197.923 12.172C197.731 11.804 197.411 11.548 196.963 11.404C196.531 11.244 195.907 11.164 195.091 11.164C192.643 11.164 190.851 11.356 189.715 11.74C188.595 12.14 188.035 12.836 188.035 13.828V21.172C188.035 21.86 188.131 22.388 188.323 22.756C188.531 23.124 188.859 23.388 189.307 23.548C189.755 23.708 190.387 23.788 191.203 23.788C193.667 23.788 195.451 23.588 196.555 23.188C197.659 22.772 198.211 22.084 198.211 21.124V13.756ZM195.475 21.028C195.491 21.652 195.299 22.092 194.899 22.348C194.515 22.588 193.619 22.724 192.211 22.756C191.635 22.756 191.251 22.628 191.059 22.372C190.867 22.116 190.771 21.628 190.771 20.908V13.924C190.755 13.284 190.963 12.828 191.395 12.556C191.795 12.3 192.691 12.172 194.083 12.172C194.611 12.172 194.971 12.308 195.163 12.58C195.371 12.836 195.475 13.324 195.475 14.044V21.028ZM221.113 7.732C221.177 7.556 221.209 7.372 221.209 7.18C221.209 6.94 221.161 6.724 221.065 6.532C220.105 6.42 219.161 6.364 218.233 6.364C216.873 6.364 215.649 6.412 214.561 6.508C213.313 6.62 212.225 6.9 211.297 7.348C210.817 7.588 210.441 7.908 210.169 8.308C209.913 8.708 209.785 9.164 209.785 9.676V20.572C209.785 21.452 209.913 22.124 210.169 22.588C210.441 23.052 210.873 23.38 211.465 23.572C212.073 23.764 212.929 23.86 214.033 23.86C216.849 23.86 219.265 23.548 221.281 22.924C221.361 22.716 221.401 22.54 221.401 22.396C221.401 22.252 221.353 22.028 221.257 21.724C220.697 21.884 219.777 22.044 218.497 22.204C217.233 22.364 216.057 22.444 214.969 22.444C214.345 22.444 213.873 22.38 213.553 22.252C213.233 22.124 213.001 21.908 212.857 21.604C212.729 21.284 212.665 20.828 212.665 20.236V9.796C212.649 8.836 213.049 8.244 213.865 8.02C214.905 7.732 216.449 7.588 218.497 7.588C219.761 7.588 220.633 7.636 221.113 7.732ZM234.969 13.756C234.969 13.068 234.873 12.54 234.681 12.172C234.489 11.804 234.169 11.548 233.721 11.404C233.289 11.244 232.665 11.164 231.849 11.164C229.401 11.164 227.609 11.356 226.473 11.74C225.353 12.14 224.793 12.836 224.793 13.828V21.172C224.793 21.86 224.889 22.388 225.081 22.756C225.289 23.124 225.617 23.388 226.065 23.548C226.513 23.708 227.145 23.788 227.961 23.788C230.425 23.788 232.209 23.588 233.313 23.188C234.417 22.772 234.969 22.084 234.969 21.124V13.756ZM232.233 21.028C232.249 21.652 232.057 22.092 231.657 22.348C231.273 22.588 230.377 22.724 228.969 22.756C228.393 22.756 228.009 22.628 227.817 22.372C227.625 22.116 227.529 21.628 227.529 20.908V13.924C227.513 13.284 227.721 12.828 228.153 12.556C228.553 12.3 229.449 12.172 230.841 12.172C231.369 12.172 231.729 12.308 231.921 12.58C232.129 12.836 232.233 13.324 232.233 14.044V21.028ZM251.714 23.356C251.762 23.212 251.786 23.076 251.786 22.948C251.786 22.756 251.754 22.604 251.69 22.492H250.01C249.85 22.492 249.77 22.068 249.77 21.22V7.42C249.786 7.084 249.762 6.852 249.698 6.724C249.65 6.58 249.53 6.492 249.338 6.46C249.146 6.412 248.81 6.388 248.33 6.388C247.226 6.388 246.146 6.54 245.09 6.844C245.042 6.988 245.018 7.124 245.018 7.252C245.018 7.444 245.05 7.596 245.114 7.708L246.77 7.66C246.946 7.66 247.034 8.1 247.034 8.98V11.164C244.97 11.228 243.178 11.404 241.658 11.692C240.25 11.948 239.546 12.708 239.546 13.972V21.988C239.546 22.644 239.73 23.116 240.098 23.404C240.466 23.676 241.09 23.812 241.97 23.812C242.13 23.812 242.402 23.796 242.786 23.764C243.426 23.684 243.978 23.588 244.442 23.476C245.018 23.332 245.586 23.18 246.146 23.02L247.034 22.78C247.018 23.116 247.034 23.356 247.082 23.5C247.146 23.628 247.274 23.708 247.466 23.74C247.658 23.788 247.994 23.812 248.474 23.812C249.578 23.812 250.658 23.66 251.714 23.356ZM247.034 21.7C245.45 22.148 244.314 22.372 243.626 22.372C242.73 22.372 242.282 22.044 242.282 21.388V13.996C242.282 13.564 242.386 13.252 242.594 13.06C242.818 12.868 243.25 12.708 243.89 12.58C244.514 12.452 245.562 12.348 247.034 12.268V21.7ZM264.435 21.892C263.939 22.02 263.139 22.172 262.035 22.348C260.947 22.524 260.083 22.612 259.443 22.612C258.723 22.612 258.243 22.516 258.003 22.324C257.779 22.132 257.667 21.732 257.667 21.124V18.388C259.123 18.292 260.739 18.108 262.515 17.836C263.251 17.676 263.787 17.412 264.123 17.044C264.459 16.66 264.627 16.132 264.627 15.46V13.756C264.627 13.068 264.531 12.54 264.339 12.172C264.147 11.804 263.827 11.548 263.379 11.404C262.947 11.244 262.323 11.164 261.507 11.164C259.203 11.164 257.539 11.356 256.515 11.74C255.459 12.14 254.931 12.836 254.931 13.828V22.06C254.931 22.684 255.123 23.132 255.507 23.404C255.907 23.676 256.539 23.812 257.403 23.812C259.963 23.812 262.315 23.532 264.459 22.972C264.523 22.86 264.555 22.7 264.555 22.492C264.555 22.252 264.515 22.052 264.435 21.892ZM257.667 13.924C257.635 13.284 257.819 12.836 258.219 12.58C258.619 12.308 259.379 12.172 260.499 12.172C261.027 12.172 261.387 12.3 261.579 12.556C261.787 12.796 261.891 13.252 261.891 13.924V15.388C261.891 15.9 261.787 16.252 261.579 16.444C261.371 16.636 260.939 16.804 260.283 16.948C259.611 17.076 258.739 17.188 257.667 17.284V13.924Z" fill="white"/>
<defs>
<filter id="filter0_ii_19_228" x="-2" y="-2" width="36" height="36" filterUnits="userSpaceOnUse" color-interpolation-filters="sRGB">
<feFlood flood-opacity="0" result="BackgroundImageFix"/>
<feBlend mode="normal" in="SourceGraphic" in2="BackgroundImageFix" result="shape"/>
<feColorMatrix in="SourceAlpha" type="matrix" values="0 0 0 0 0 0 0 0 0 0 0 0 0 0 0 0 0 0 127 0" result="hardAlpha"/>
<feOffset dx="2" dy="2"/>
<feGaussianBlur stdDeviation="2"/>
<feComposite in2="hardAlpha" operator="arithmetic" k2="-1" k3="1"/>
<feColorMatrix type="matrix" values="0 0 0 0 0.171811 0 0 0 0 0.353077 0 0 0 0 0.483218 0 0 0 1 0"/>
<feBlend mode="normal" in2="shape" result="effect1_innerShadow_19_228"/>
<feColorMatrix in="SourceAlpha" type="matrix" values="0 0 0 0 0 0 0 0 0 0 0 0 0 0 0 0 0 0 127 0" result="hardAlpha"/>
<feOffset dx="-2" dy="-2"/>
<feGaussianBlur stdDeviation="2.5"/>
<feComposite in2="hardAlpha" operator="arithmetic" k2="-1" k3="1"/>
<feColorMatrix type="matrix" values="0 0 0 0 0.0394684 0 0 0 0 0.111016 0 0 0 0 0.162384 0 0 0 1 0"/>
<feBlend mode="normal" in2="effect1_innerShadow_19_228" result="effect2_innerShadow_19_228"/>
</filter>
</defs>
</svg>
