<svg width="123" height="32" viewBox="0 0 123 32" fill="none" xmlns="http://www.w3.org/2000/svg">
<rect width="123" height="32" rx="4" fill="url(#paint0_linear_19_185)"/>
<rect width="32" height="32" rx="4" fill="white"/>
<path d="M8.42646 24.4008L6.74121 5.5H25.2587L23.5712 24.3978L15.9887 26.5L8.42646 24.4008Z" fill="#E44F26"/>
<path d="M16 24.8935L22.1275 23.1948L23.569 7.04578H16V24.8935Z" fill="#F1662A"/>
<path d="M16 14.0553H12.9325L12.721 11.6815H16V9.36328H10.1875L10.243 9.98578L10.8123 16.3735H16V14.0553V14.0553ZM16 20.0755L15.9895 20.0785L13.408 19.3818L13.243 17.533H10.9157L11.2405 21.172L15.9895 22.4905L16 22.4875V20.0755Z" fill="#EBEBEB"/>
<path d="M15.9917 14.0553V16.3735H18.8462L18.5777 19.3803L15.9917 20.0778V22.4898L20.7444 21.172L20.7789 20.7805L21.3234 14.6778L21.3804 14.0553H15.9917V14.0553ZM15.9917 9.36328V11.6815H21.5912L21.6377 11.161L21.7434 9.98578L21.7989 9.36328H15.9917V9.36328Z" fill="white"/>
<path d="M47.064 14.716C49.56 14.7 51.88 14.516 54.024 14.164V22.78C54.008 23.116 54.032 23.356 54.096 23.5C54.176 23.628 54.32 23.708 54.528 23.74C54.752 23.788 55.12 23.812 55.632 23.812C56.624 23.812 57.648 23.66 58.704 23.356C58.752 23.212 58.776 23.076 58.776 22.948C58.776 22.756 58.744 22.604 58.68 22.492L57.168 22.54C56.992 22.54 56.904 22.1 56.904 21.22V7.42C56.92 7.084 56.888 6.852 56.808 6.724C56.744 6.58 56.6 6.492 56.376 6.46C56.168 6.412 55.808 6.388 55.296 6.388C54.304 6.388 53.28 6.54 52.224 6.844C52.176 6.988 52.152 7.124 52.152 7.252C52.152 7.444 52.184 7.596 52.248 7.708L53.76 7.66C53.936 7.66 54.024 8.1 54.024 8.98V12.916C51.016 13.252 48.696 13.436 47.064 13.468V7.42C47.08 7.084 47.048 6.852 46.968 6.724C46.904 6.58 46.76 6.492 46.536 6.46C46.328 6.412 45.968 6.388 45.456 6.388C44.464 6.388 43.44 6.54 42.384 6.844C42.336 6.988 42.312 7.124 42.312 7.252C42.312 7.444 42.344 7.596 42.408 7.708L43.92 7.66C44.096 7.66 44.184 8.1 44.184 8.98V22.78C44.168 23.116 44.192 23.356 44.256 23.5C44.336 23.628 44.48 23.708 44.688 23.74C44.912 23.788 45.28 23.812 45.792 23.812C46.784 23.812 47.808 23.66 48.864 23.356C48.912 23.212 48.936 23.076 48.936 22.948C48.936 22.756 48.904 22.604 48.84 22.492L47.328 22.54C47.152 22.54 47.064 22.1 47.064 21.22V14.716ZM72.9334 6.556C71.5574 6.428 70.1094 6.364 68.5894 6.364C65.5334 6.364 62.8534 6.668 60.5494 7.276C60.4854 7.564 60.4534 7.772 60.4534 7.9C60.4534 8.124 60.5014 8.348 60.5974 8.572C61.9734 8.252 63.5974 8.02 65.4694 7.876V22.78C65.4534 23.116 65.4774 23.356 65.5414 23.5C65.6214 23.628 65.7654 23.708 65.9734 23.74C66.1974 23.788 66.5654 23.812 67.0774 23.812C68.0694 23.812 69.0934 23.66 70.1494 23.356C70.1974 23.212 70.2214 23.076 70.2214 22.948C70.2214 22.756 70.1894 22.604 70.1254 22.492L68.6134 22.54C68.4374 22.54 68.3494 22.1 68.3494 21.22V7.684C70.1574 7.668 71.7014 7.732 72.9814 7.876C73.0454 7.7 73.0774 7.492 73.0774 7.252C73.0774 6.948 73.0294 6.716 72.9334 6.556ZM88.6543 8.764C90.2703 8.236 91.5263 7.972 92.4223 7.972C92.9663 7.972 93.3743 8.012 93.6463 8.092C93.9343 8.172 94.1343 8.324 94.2463 8.548C94.3583 8.772 94.4143 9.1 94.4143 9.532V22.78C94.3983 23.116 94.4223 23.356 94.4863 23.5C94.5663 23.628 94.7103 23.708 94.9183 23.74C95.1423 23.788 95.5103 23.812 96.0223 23.812C97.0143 23.812 98.0383 23.66 99.0943 23.356C99.1423 23.212 99.1663 23.076 99.1663 22.948C99.1663 22.756 99.1343 22.604 99.0703 22.492L97.5583 22.54C97.3823 22.54 97.2943 22.1 97.2943 21.22V8.212C97.2943 7.572 97.0863 7.108 96.6703 6.82C96.2543 6.532 95.5983 6.388 94.7023 6.388C92.7183 6.404 90.6783 6.812 88.5823 7.612C88.3743 6.796 87.5743 6.388 86.1823 6.388C84.0863 6.388 82.0303 6.78 80.0143 7.564V7.42C80.0303 7.084 79.9983 6.852 79.9183 6.724C79.8543 6.58 79.7103 6.492 79.4863 6.46C79.2783 6.412 78.9183 6.388 78.4063 6.388C77.4143 6.388 76.3903 6.54 75.3343 6.844C75.2863 6.988 75.2623 7.124 75.2623 7.252C75.2623 7.444 75.2943 7.596 75.3583 7.708L76.8703 7.66C77.0463 7.66 77.1343 8.1 77.1343 8.98V22.78C77.1183 23.116 77.1423 23.356 77.2063 23.5C77.2863 23.628 77.4303 23.708 77.6383 23.74C77.8623 23.788 78.2303 23.812 78.7423 23.812C79.7343 23.812 80.7583 23.66 81.8143 23.356C81.8623 23.212 81.8863 23.076 81.8863 22.948C81.8863 22.756 81.8543 22.604 81.7903 22.492L80.2783 22.54C80.1023 22.54 80.0143 22.1 80.0143 21.22V8.764C81.6303 8.236 82.8863 7.972 83.7823 7.972C84.3263 7.972 84.7343 8.012 85.0063 8.092C85.2943 8.172 85.4943 8.324 85.6063 8.548C85.7183 8.772 85.7743 9.1 85.7743 9.532V22.78C85.7583 23.116 85.7823 23.356 85.8463 23.5C85.9263 23.628 86.0703 23.708 86.2783 23.74C86.5023 23.788 86.8703 23.812 87.3823 23.812C88.3743 23.812 89.3983 23.66 90.4543 23.356C90.5023 23.212 90.5263 23.076 90.5263 22.948C90.5263 22.756 90.4943 22.604 90.4303 22.492L88.9183 22.54C88.7423 22.54 88.6543 22.1 88.6543 21.22V8.764ZM113.553 22.804C113.633 22.612 113.673 22.396 113.673 22.156C113.673 21.852 113.617 21.62 113.505 21.46C111.569 22.036 109.689 22.332 107.865 22.348C107.017 22.348 106.489 22.308 106.281 22.228C106.089 22.148 105.993 21.972 105.993 21.7V7.42C106.009 7.084 105.977 6.852 105.897 6.724C105.833 6.58 105.689 6.492 105.465 6.46C105.257 6.412 104.897 6.388 104.385 6.388C103.393 6.388 102.369 6.54 101.313 6.844C101.265 6.988 101.241 7.124 101.241 7.252C101.241 7.444 101.273 7.596 101.337 7.708L102.849 7.66C103.025 7.66 103.113 8.1 103.113 8.98V21.988C103.113 22.628 103.321 23.092 103.737 23.38C104.153 23.668 104.809 23.812 105.705 23.812C108.633 23.812 111.249 23.476 113.553 22.804Z" fill="white"/>
<defs>
<linearGradient id="paint0_linear_19_185" x1="61.5" y1="-46.5" x2="61.5" y2="32" gradientUnits="userSpaceOnUse">
<stop stop-color="white"/>
<stop offset="1"/>
</linearGradient>
</defs>
</svg>
