<svg width="144" height="32" viewBox="0 0 144 32" fill="none" xmlns="http://www.w3.org/2000/svg">
<rect width="144" height="32" rx="4" fill="url(#paint0_linear_19_179)"/>
<rect width="32" height="32" rx="4" fill="white"/>
<g clip-path="url(#clip0_19_179)">
<path d="M27.9865 9.41989C27.9954 9.4518 28 9.48471 28 9.5178V14.6603C28 14.7947 27.9259 14.9188 27.8057 14.9856L23.3547 17.4708V22.3963C23.3547 22.4622 23.3369 22.5269 23.3029 22.584C23.269 22.6411 23.2202 22.6886 23.1614 22.7216L13.87 27.9083C13.8487 27.9199 13.8256 27.9273 13.8023 27.9354C13.7936 27.9382 13.7854 27.9433 13.7762 27.9457C13.7113 27.9623 13.643 27.9623 13.5781 27.9457C13.5674 27.943 13.5577 27.9372 13.5476 27.9335C13.5263 27.926 13.5041 27.9194 13.4838 27.9083L4.19434 22.7215C4.13531 22.6887 4.08626 22.6413 4.05214 22.5842C4.01802 22.5271 4.00004 22.4623 4 22.3963V6.96861C4 6.9348 4.00487 6.90198 4.0135 6.87016C4.01641 6.85934 4.02316 6.84952 4.02709 6.83871C4.03431 6.81907 4.04116 6.79889 4.05175 6.78061C4.05897 6.76843 4.06956 6.75861 4.07828 6.74734C4.08944 6.73234 4.09956 6.71689 4.11259 6.70371C4.12375 6.69298 4.13828 6.68498 4.15084 6.67561C4.16491 6.66434 4.17738 6.65216 4.19331 6.64325H4.19378L8.83872 4.04998C8.89754 4.01715 8.96421 3.99988 9.03208 3.99988C9.09994 3.99988 9.16662 4.01715 9.22544 4.04998L13.8704 6.64325H13.8713C13.8868 6.65271 13.8999 6.66434 13.9139 6.67516C13.9264 6.68452 13.9405 6.69298 13.9516 6.70334C13.9652 6.71689 13.9748 6.73243 13.9863 6.74734C13.9946 6.75861 14.0058 6.76843 14.0125 6.78061C14.0236 6.79934 14.0298 6.81907 14.0376 6.8388C14.0415 6.84952 14.0482 6.85934 14.0511 6.87061C14.06 6.90252 14.0646 6.93552 14.0647 6.96861V16.6044L17.9353 14.4433V9.51734C17.9353 9.48461 17.9402 9.45125 17.9489 9.41989C17.9522 9.40861 17.9585 9.3988 17.9624 9.38807C17.9702 9.36834 17.9769 9.34807 17.9875 9.32989C17.9947 9.31771 18.0053 9.30789 18.0137 9.29661C18.0252 9.28161 18.0348 9.26616 18.0483 9.25298C18.0596 9.24225 18.0736 9.23425 18.0861 9.22489C18.1007 9.21361 18.1132 9.20143 18.1287 9.19252H18.1292L22.7746 6.59925C22.8334 6.56638 22.9 6.54908 22.9679 6.54908C23.0358 6.54908 23.1025 6.56638 23.1613 6.59925L27.8062 9.19252C27.8226 9.20189 27.8352 9.21361 27.8497 9.22434C27.8617 9.2338 27.8758 9.24225 27.8869 9.25252C27.9004 9.26616 27.9101 9.28161 27.9216 9.29661C27.9304 9.30789 27.941 9.31771 27.9479 9.32989C27.9589 9.34807 27.9652 9.36834 27.9729 9.38807C27.9773 9.3988 27.9836 9.40861 27.9865 9.41989V9.41989ZM27.2257 14.4433V10.167L25.6002 11.0743L23.3546 12.3282V16.6045L27.2262 14.4433H27.2257V14.4433ZM22.5808 22.1793V17.8999L20.3718 19.1233L14.0642 22.6142V26.9336L22.5808 22.1791V22.1793ZM4.77428 7.61771V22.1793L13.2899 26.9333V22.6146L8.84125 20.1732L8.83984 20.1723L8.83797 20.1713C8.82297 20.1629 8.81031 20.1507 8.79634 20.1404C8.78416 20.131 8.77019 20.1235 8.75959 20.1132L8.75866 20.1118C8.74609 20.1001 8.73737 20.0855 8.72678 20.0724C8.71703 20.0597 8.7055 20.049 8.69772 20.0359L8.69725 20.0344C8.68853 20.0204 8.68319 20.0035 8.67691 19.9876C8.67063 19.9735 8.66247 19.9603 8.65853 19.9454V19.945C8.65375 19.9272 8.65281 19.9083 8.65084 19.8901C8.64897 19.8761 8.64503 19.862 8.64503 19.8479V9.77898L6.39981 8.52461L4.77428 7.61825V7.61771ZM9.03259 4.80834L5.16241 6.96861L9.03166 9.1288L12.9013 6.96807L9.03166 4.80834H9.03259ZM11.0452 18.29L13.2903 17.0367V7.61771L11.665 8.52516L9.41922 9.77889V19.1978L11.0452 18.29V18.29ZM22.9679 7.35761L19.0983 9.5178L22.9679 11.6781L26.837 9.51734L22.968 7.35761H22.9679ZM22.5807 12.3282L20.3351 11.0743L18.7097 10.167V14.4433L20.9548 15.6967L22.5808 16.6045V12.3282H22.5807ZM13.6766 21.9651L19.3525 18.8229L22.1898 17.2527L18.3229 15.0939L13.8708 17.5793L9.81316 19.8446L13.6766 21.9651Z" fill="#FF2D20"/>
</g>
<path d="M54.624 22.804C54.704 22.612 54.744 22.396 54.744 22.156C54.744 21.852 54.688 21.62 54.576 21.46C52.64 22.036 50.76 22.332 48.936 22.348C48.088 22.348 47.56 22.308 47.352 22.228C47.16 22.148 47.064 21.972 47.064 21.7V7.42C47.08 7.084 47.048 6.852 46.968 6.724C46.904 6.58 46.76 6.492 46.536 6.46C46.328 6.412 45.968 6.388 45.456 6.388C44.464 6.388 43.44 6.54 42.384 6.844C42.336 6.988 42.312 7.124 42.312 7.252C42.312 7.444 42.344 7.596 42.408 7.708L43.92 7.66C44.096 7.66 44.184 8.1 44.184 8.98V21.988C44.184 22.628 44.392 23.092 44.808 23.38C45.224 23.668 45.88 23.812 46.776 23.812C49.704 23.812 52.32 23.476 54.624 22.804ZM69.1031 23.356C69.1511 23.212 69.1751 23.076 69.1751 22.948C69.1751 22.756 69.1431 22.604 69.0791 22.492L67.4231 22.54C67.2471 22.54 67.1591 22.1 67.1591 21.22V12.916C67.1591 12.292 66.9591 11.844 66.5591 11.572C66.1751 11.3 65.5511 11.164 64.6871 11.164C62.0151 11.164 59.6631 11.484 57.6311 12.124C57.5671 12.236 57.5351 12.396 57.5351 12.604C57.5351 12.812 57.5751 13.012 57.6551 13.204C58.0231 13.092 58.7911 12.924 59.9591 12.7C61.3031 12.476 62.1991 12.364 62.6471 12.364C63.3671 12.364 63.8391 12.46 64.0631 12.652C64.3031 12.844 64.4231 13.244 64.4231 13.852V15.724C62.8231 15.804 61.1351 15.98 59.3591 16.252C58.6231 16.412 58.0871 16.684 57.7511 17.068C57.4151 17.436 57.2471 17.956 57.2471 18.628V21.988C57.2471 22.66 57.4311 23.132 57.7991 23.404C58.1671 23.676 58.7911 23.812 59.6711 23.812C60.9991 23.812 62.5831 23.548 64.4231 23.02C64.4231 23.26 64.4551 23.428 64.5191 23.524C64.5831 23.636 64.7111 23.708 64.9031 23.74C65.1111 23.788 65.4311 23.812 65.8631 23.812C66.9991 23.812 68.0791 23.66 69.1031 23.356ZM64.4231 21.94C63.2231 22.292 62.2471 22.468 61.4951 22.468C60.4871 22.468 59.9831 22.108 59.9831 21.388V18.724C59.9831 18.164 60.0871 17.804 60.2951 17.644C60.5831 17.404 61.1271 17.212 61.9271 17.068C62.7111 16.924 63.5431 16.836 64.4231 16.804V21.94ZM72.6767 12.436C72.8527 12.436 72.9407 12.876 72.9407 13.756V22.78C72.9247 23.116 72.9407 23.356 72.9887 23.5C73.0527 23.628 73.1807 23.708 73.3727 23.74C73.5647 23.788 73.9007 23.812 74.3807 23.812C75.4847 23.812 76.5647 23.66 77.6207 23.356C77.6687 23.212 77.6927 23.076 77.6927 22.948C77.6927 22.756 77.6607 22.604 77.5967 22.492L75.9407 22.54C75.7647 22.54 75.6767 22.1 75.6767 21.22V13.276C76.6047 12.892 77.3167 12.7 77.8127 12.7C78.4367 12.7 78.7487 12.996 78.7487 13.588V15.58C78.7487 15.852 78.8847 15.988 79.1567 15.988C79.8447 15.988 80.4927 15.9 81.1007 15.724C81.3567 15.628 81.4847 15.468 81.4847 15.244V12.988C81.4847 12.332 81.3007 11.868 80.9327 11.596C80.5647 11.308 79.9407 11.164 79.0607 11.164C78.3887 11.164 77.2607 11.508 75.6767 12.196C75.6927 11.86 75.6687 11.628 75.6047 11.5C75.5567 11.356 75.4367 11.268 75.2447 11.236C75.0527 11.188 74.7167 11.164 74.2367 11.164C73.1327 11.164 72.0527 11.316 70.9967 11.62C70.9487 11.764 70.9247 11.9 70.9247 12.028C70.9247 12.22 70.9567 12.372 71.0207 12.484L72.6767 12.436ZM96.3816 23.356C96.4296 23.212 96.4536 23.076 96.4536 22.948C96.4536 22.756 96.4216 22.604 96.3576 22.492L94.7016 22.54C94.5256 22.54 94.4376 22.1 94.4376 21.22V12.916C94.4376 12.292 94.2376 11.844 93.8376 11.572C93.4536 11.3 92.8296 11.164 91.9656 11.164C89.2936 11.164 86.9416 11.484 84.9096 12.124C84.8456 12.236 84.8136 12.396 84.8136 12.604C84.8136 12.812 84.8536 13.012 84.9336 13.204C85.3016 13.092 86.0696 12.924 87.2376 12.7C88.5816 12.476 89.4776 12.364 89.9256 12.364C90.6456 12.364 91.1176 12.46 91.3416 12.652C91.5816 12.844 91.7016 13.244 91.7016 13.852V15.724C90.1016 15.804 88.4136 15.98 86.6376 16.252C85.9016 16.412 85.3656 16.684 85.0296 17.068C84.6936 17.436 84.5256 17.956 84.5256 18.628V21.988C84.5256 22.66 84.7096 23.132 85.0776 23.404C85.4456 23.676 86.0696 23.812 86.9496 23.812C88.2776 23.812 89.8616 23.548 91.7016 23.02C91.7016 23.26 91.7336 23.428 91.7976 23.524C91.8616 23.636 91.9896 23.708 92.1816 23.74C92.3896 23.788 92.7096 23.812 93.1416 23.812C94.2776 23.812 95.3576 23.66 96.3816 23.356ZM91.7016 21.94C90.5016 22.292 89.5256 22.468 88.7736 22.468C87.7656 22.468 87.2616 22.108 87.2616 21.388V18.724C87.2616 18.164 87.3656 17.804 87.5736 17.644C87.8616 17.404 88.4056 17.212 89.2056 17.068C89.9896 16.924 90.8216 16.836 91.7016 16.804V21.94ZM99.8831 12.436C100.059 12.436 100.147 12.876 100.147 13.756V21.172C100.147 21.684 100.203 22.108 100.315 22.444C100.443 22.764 100.651 23.02 100.939 23.212C101.211 23.42 101.571 23.564 102.019 23.644C102.483 23.74 103.075 23.788 103.795 23.788C106.099 23.788 107.747 23.516 108.739 22.972C109.251 22.7 109.619 22.356 109.843 21.94C110.083 21.508 110.203 20.996 110.203 20.404V12.988C110.203 12.636 110.187 12.364 110.155 12.172C110.139 11.98 110.075 11.812 109.963 11.668C109.691 11.348 109.147 11.188 108.331 11.188C107.467 11.188 106.515 11.34 105.475 11.644C105.459 11.74 105.451 11.844 105.451 11.956C105.451 12.18 105.499 12.404 105.595 12.628C106.107 12.5 106.595 12.436 107.059 12.436C107.235 12.436 107.347 12.516 107.395 12.676C107.443 12.836 107.467 13.14 107.467 13.588V20.308C107.467 21.028 107.347 21.564 107.107 21.916C106.883 22.252 106.539 22.476 106.075 22.588C105.611 22.7 104.939 22.756 104.059 22.756C103.611 22.756 103.299 22.62 103.123 22.348C102.963 22.076 102.883 21.596 102.883 20.908V12.196C102.883 11.876 102.875 11.676 102.859 11.596C102.811 11.372 102.603 11.236 102.235 11.188C102.107 11.172 101.843 11.164 101.443 11.164C100.307 11.164 99.2271 11.316 98.2031 11.62C98.1551 11.764 98.1311 11.9 98.1311 12.028C98.1311 12.22 98.1631 12.372 98.2271 12.484L99.8831 12.436ZM124.296 21.892C123.8 22.02 123 22.172 121.896 22.348C120.808 22.524 119.944 22.612 119.304 22.612C118.584 22.612 118.104 22.516 117.864 22.324C117.64 22.132 117.528 21.732 117.528 21.124V18.388C118.984 18.292 120.6 18.108 122.376 17.836C123.112 17.676 123.648 17.412 123.984 17.044C124.32 16.66 124.488 16.132 124.488 15.46V13.756C124.488 13.068 124.392 12.54 124.2 12.172C124.008 11.804 123.688 11.548 123.24 11.404C122.808 11.244 122.184 11.164 121.368 11.164C119.064 11.164 117.4 11.356 116.376 11.74C115.32 12.14 114.792 12.836 114.792 13.828V22.06C114.792 22.684 114.984 23.132 115.368 23.404C115.768 23.676 116.4 23.812 117.264 23.812C119.824 23.812 122.176 23.532 124.32 22.972C124.384 22.86 124.416 22.7 124.416 22.492C124.416 22.252 124.376 22.052 124.296 21.892ZM117.528 13.924C117.496 13.284 117.68 12.836 118.08 12.58C118.48 12.308 119.24 12.172 120.36 12.172C120.888 12.172 121.248 12.3 121.44 12.556C121.648 12.796 121.752 13.252 121.752 13.924V15.388C121.752 15.9 121.648 16.252 121.44 16.444C121.232 16.636 120.8 16.804 120.144 16.948C119.472 17.076 118.6 17.188 117.528 17.284V13.924ZM133.695 23.356C133.743 23.212 133.767 23.076 133.767 22.948C133.767 22.756 133.735 22.604 133.671 22.492L132.015 22.54C131.839 22.54 131.751 22.1 131.751 21.22V7.42C131.767 7.084 131.743 6.852 131.679 6.724C131.631 6.58 131.511 6.492 131.319 6.46C131.127 6.412 130.791 6.388 130.311 6.388C129.207 6.388 128.127 6.54 127.071 6.844C127.023 6.988 126.999 7.124 126.999 7.252C126.999 7.444 127.031 7.596 127.095 7.708L128.751 7.66C128.927 7.66 129.015 8.1 129.015 8.98V22.78C128.999 23.116 129.015 23.356 129.063 23.5C129.127 23.628 129.255 23.708 129.447 23.74C129.639 23.788 129.975 23.812 130.455 23.812C131.559 23.812 132.639 23.66 133.695 23.356Z" fill="white"/>
<defs>
<linearGradient id="paint0_linear_19_179" x1="72" y1="-46.5" x2="72" y2="32" gradientUnits="userSpaceOnUse">
<stop stop-color="white"/>
<stop offset="1"/>
</linearGradient>
<clipPath id="clip0_19_179">
<rect width="24" height="24" fill="white" transform="translate(4 4)"/>
</clipPath>
</defs>
</svg>
