<svg width="112" height="32" viewBox="0 0 112 32" fill="none" xmlns="http://www.w3.org/2000/svg">
<rect width="112" height="32" rx="4" fill="url(#paint0_linear_19_220)"/>
<rect width="32" height="32" rx="4" fill="white"/>
<path d="M16.0002 26.5C15.7169 26.5001 15.4386 26.4256 15.1932 26.284L12.6252 24.7637C12.242 24.5492 12.4287 24.4735 12.5555 24.4292C12.9631 24.3033 13.3533 24.1269 13.7172 23.9042C13.7477 23.8901 13.7812 23.884 13.8147 23.8865C13.8482 23.889 13.8804 23.9 13.9085 23.9185L15.8817 25.0907C15.9185 25.1101 15.9594 25.1203 16.001 25.1203C16.0425 25.1203 16.0835 25.1101 16.1202 25.0907L23.8152 20.6492C23.8512 20.6276 23.881 20.5971 23.9017 20.5605C23.9223 20.524 23.9331 20.4827 23.933 20.4407V11.5562C23.933 11.5136 23.922 11.4716 23.9011 11.4345C23.8803 11.3973 23.8502 11.3661 23.8137 11.344L16.1187 6.9062C16.0824 6.88577 16.0415 6.87503 15.9998 6.87503C15.9582 6.87503 15.9173 6.88577 15.881 6.9062L8.19047 11.3455C8.15379 11.3671 8.12333 11.3979 8.10204 11.4349C8.08075 11.4718 8.06936 11.5136 8.06897 11.5562V20.437C8.06908 20.4788 8.08031 20.5199 8.10153 20.556C8.12275 20.5922 8.15318 20.622 8.18972 20.6425L10.3002 21.8605C11.444 22.432 12.1445 21.7585 12.1445 21.082V12.3137C12.1445 12.254 12.1682 12.1968 12.2104 12.1546C12.2526 12.1124 12.3098 12.0887 12.3695 12.0887H13.3445C13.4041 12.0887 13.4614 12.1124 13.5036 12.1546C13.5458 12.1968 13.5695 12.254 13.5695 12.3137V21.0827C13.5695 22.609 12.7385 23.4827 11.291 23.4827C10.6665 23.4936 10.0518 23.3266 9.51872 23.0012L7.49597 21.841C7.25041 21.698 7.04666 21.493 6.90505 21.2467C6.76344 21.0003 6.68894 20.7211 6.68897 20.437V11.5562C6.68824 11.2716 6.76243 10.9918 6.90409 10.745C7.04574 10.4981 7.24988 10.2929 7.49597 10.15L15.1917 5.70695C15.4396 5.57133 15.7176 5.50024 16.0002 5.50024C16.2828 5.50024 16.5608 5.57133 16.8087 5.70695L24.5037 10.15C24.7492 10.2927 24.9531 10.4973 25.0948 10.7434C25.2365 10.9895 25.3112 11.2685 25.3115 11.5525V20.437C25.3111 20.7211 25.2363 21.0002 25.0946 21.2465C24.9529 21.4928 24.7492 21.6978 24.5037 21.841L16.8087 26.284C16.5629 26.4258 16.284 26.5003 16.0002 26.5V26.5Z" fill="#83CD29"/>
<path d="M14.5405 17.4647C14.5405 17.405 14.5642 17.3478 14.6064 17.3056C14.6486 17.2634 14.7059 17.2397 14.7655 17.2397H15.7608C15.814 17.2399 15.8654 17.2589 15.9059 17.2933C15.9464 17.3278 15.9733 17.3755 15.982 17.428C16.132 18.4412 16.582 18.952 18.6168 18.952C20.2375 18.952 20.9283 18.5852 20.9283 17.725C20.9283 17.2292 20.7325 16.861 18.2133 16.6142C16.1073 16.4057 14.8053 15.9392 14.8053 14.2562C14.8053 12.7037 16.114 11.7775 18.3078 11.7775C20.773 11.7775 21.9933 12.6332 22.1478 14.4692C22.1501 14.4999 22.1462 14.5307 22.1362 14.5597C22.1262 14.5888 22.1103 14.6155 22.0896 14.6382C22.0688 14.6609 22.0437 14.6791 22.0156 14.6917C21.9876 14.7043 21.9573 14.711 21.9265 14.7115H20.9245C20.8743 14.7108 20.8257 14.6932 20.7865 14.6617C20.7474 14.6302 20.7199 14.5864 20.7085 14.5375C20.4693 13.4717 19.8835 13.1312 18.3085 13.1312C16.5385 13.1312 16.333 13.7477 16.333 14.2097C16.333 14.7692 16.576 14.9327 18.9655 15.2485C21.3303 15.5612 22.4538 16.0037 22.4538 17.6657C22.4538 19.3427 21.0558 20.3027 18.6175 20.3027C15.2463 20.3072 14.5405 18.7615 14.5405 17.4647V17.4647Z" fill="#83CD29"/>
<path d="M56.472 8.212C56.472 7.572 56.264 7.108 55.848 6.82C55.432 6.532 54.776 6.388 53.88 6.388C51.544 6.388 49.272 6.78 47.064 7.564V7.42C47.08 7.084 47.048 6.852 46.968 6.724C46.904 6.58 46.76 6.492 46.536 6.46C46.328 6.412 45.968 6.388 45.456 6.388C44.464 6.388 43.44 6.54 42.384 6.844C42.336 6.988 42.312 7.124 42.312 7.252C42.312 7.444 42.344 7.596 42.408 7.708L43.92 7.66C44.096 7.66 44.184 8.1 44.184 8.98V22.78C44.168 23.116 44.192 23.356 44.256 23.5C44.336 23.628 44.48 23.708 44.688 23.74C44.912 23.788 45.28 23.812 45.792 23.812C46.784 23.812 47.808 23.66 48.864 23.356C48.912 23.212 48.936 23.076 48.936 22.948C48.936 22.756 48.904 22.604 48.84 22.492L47.328 22.54C47.152 22.54 47.064 22.1 47.064 21.22V8.764C49.016 8.236 50.568 7.972 51.72 7.972C52.456 7.972 52.952 8.076 53.208 8.284C53.464 8.492 53.592 8.908 53.592 9.532V22.78C53.576 23.116 53.6 23.356 53.664 23.5C53.744 23.628 53.888 23.708 54.096 23.74C54.32 23.788 54.688 23.812 55.2 23.812C56.192 23.812 57.216 23.66 58.272 23.356C58.32 23.212 58.344 23.076 58.344 22.948C58.344 22.756 58.312 22.604 58.248 22.492L56.736 22.54C56.56 22.54 56.472 22.1 56.472 21.22V8.212ZM71.8401 13.756C71.8401 13.068 71.7441 12.54 71.5521 12.172C71.3601 11.804 71.0401 11.548 70.5921 11.404C70.1601 11.244 69.5361 11.164 68.7201 11.164C66.2721 11.164 64.4801 11.356 63.3441 11.74C62.2241 12.14 61.6641 12.836 61.6641 13.828V21.172C61.6641 21.86 61.7601 22.388 61.9521 22.756C62.1601 23.124 62.4881 23.388 62.9361 23.548C63.3841 23.708 64.0161 23.788 64.8321 23.788C67.2961 23.788 69.0801 23.588 70.1841 23.188C71.2881 22.772 71.8401 22.084 71.8401 21.124V13.756ZM69.1041 21.028C69.1201 21.652 68.9281 22.092 68.5281 22.348C68.1441 22.588 67.2481 22.724 65.8401 22.756C65.2641 22.756 64.8801 22.628 64.6881 22.372C64.4961 22.116 64.4001 21.628 64.4001 20.908V13.924C64.3841 13.284 64.5921 12.828 65.0241 12.556C65.4241 12.3 66.3201 12.172 67.7121 12.172C68.2401 12.172 68.6001 12.308 68.7921 12.58C69.0001 12.836 69.1041 13.324 69.1041 14.044V21.028ZM88.5851 23.356C88.6331 23.212 88.6571 23.076 88.6571 22.948C88.6571 22.756 88.6251 22.604 88.5611 22.492H86.8811C86.7211 22.492 86.6411 22.068 86.6411 21.22V7.42C86.6571 7.084 86.6331 6.852 86.5691 6.724C86.5211 6.58 86.4011 6.492 86.2091 6.46C86.0171 6.412 85.6811 6.388 85.2011 6.388C84.0971 6.388 83.0171 6.54 81.9611 6.844C81.9131 6.988 81.8891 7.124 81.8891 7.252C81.8891 7.444 81.9211 7.596 81.9851 7.708L83.6411 7.66C83.8171 7.66 83.9051 8.1 83.9051 8.98V11.164C81.8411 11.228 80.0491 11.404 78.5291 11.692C77.1211 11.948 76.4171 12.708 76.4171 13.972V21.988C76.4171 22.644 76.6011 23.116 76.9691 23.404C77.3371 23.676 77.9611 23.812 78.8411 23.812C79.0011 23.812 79.2731 23.796 79.6571 23.764C80.2971 23.684 80.8491 23.588 81.3131 23.476C81.8891 23.332 82.4571 23.18 83.0171 23.02L83.9051 22.78C83.8891 23.116 83.9051 23.356 83.9531 23.5C84.0171 23.628 84.1451 23.708 84.3371 23.74C84.5291 23.788 84.8651 23.812 85.3451 23.812C86.4491 23.812 87.5291 23.66 88.5851 23.356ZM83.9051 21.7C82.3211 22.148 81.1851 22.372 80.4971 22.372C79.6011 22.372 79.1531 22.044 79.1531 21.388V13.996C79.1531 13.564 79.2571 13.252 79.4651 13.06C79.6891 12.868 80.1211 12.708 80.7611 12.58C81.3851 12.452 82.4331 12.348 83.9051 12.268V21.7ZM101.306 21.892C100.81 22.02 100.01 22.172 98.9064 22.348C97.8184 22.524 96.9544 22.612 96.3144 22.612C95.5944 22.612 95.1144 22.516 94.8744 22.324C94.6504 22.132 94.5384 21.732 94.5384 21.124V18.388C95.9944 18.292 97.6104 18.108 99.3864 17.836C100.122 17.676 100.658 17.412 100.994 17.044C101.33 16.66 101.498 16.132 101.498 15.46V13.756C101.498 13.068 101.402 12.54 101.21 12.172C101.018 11.804 100.698 11.548 100.25 11.404C99.8184 11.244 99.1944 11.164 98.3784 11.164C96.0744 11.164 94.4104 11.356 93.3864 11.74C92.3304 12.14 91.8024 12.836 91.8024 13.828V22.06C91.8024 22.684 91.9944 23.132 92.3784 23.404C92.7784 23.676 93.4104 23.812 94.2744 23.812C96.8344 23.812 99.1864 23.532 101.33 22.972C101.394 22.86 101.426 22.7 101.426 22.492C101.426 22.252 101.386 22.052 101.306 21.892ZM94.5384 13.924C94.5064 13.284 94.6904 12.836 95.0904 12.58C95.4904 12.308 96.2504 12.172 97.3704 12.172C97.8984 12.172 98.2584 12.3 98.4504 12.556C98.6584 12.796 98.7624 13.252 98.7624 13.924V15.388C98.7624 15.9 98.6584 16.252 98.4504 16.444C98.2424 16.636 97.8104 16.804 97.1544 16.948C96.4824 17.076 95.6104 17.188 94.5384 17.284V13.924Z" fill="white"/>
<defs>
<linearGradient id="paint0_linear_19_220" x1="56" y1="-46.5" x2="56" y2="32" gradientUnits="userSpaceOnUse">
<stop stop-color="white"/>
<stop offset="1"/>
</linearGradient>
</defs>
</svg>
