<svg width="136" height="32" viewBox="0 0 136 32" fill="none" xmlns="http://www.w3.org/2000/svg">
<rect width="136" height="32" rx="4" fill="url(#paint0_linear_19_153)"/>
<rect width="32" height="32" rx="4" fill="white"/>
<g clip-path="url(#clip0_19_153)">
<path d="M15.8985 4.00684C9.82045 4.00684 10.2 6.65295 10.2 6.65295L10.2067 9.39441H16.0068V10.2175H7.90298C7.90298 10.2175 4.01367 9.77465 4.01367 15.9314C4.01367 22.0882 7.40836 21.8699 7.40836 21.8699H9.4343V19.0129C9.4343 19.0129 9.32508 15.6049 12.7748 15.6049H18.5275C18.5275 15.6049 21.7595 15.6573 21.7595 12.469V7.19724C21.7595 7.19724 22.2504 4.00684 15.8985 4.00684ZM12.7003 5.85041C12.8373 5.85029 12.9731 5.8773 13.0997 5.9299C13.2264 5.9825 13.3414 6.05965 13.4384 6.15695C13.5353 6.25425 13.6121 6.36978 13.6645 6.49692C13.7169 6.62407 13.7438 6.76034 13.7437 6.89794C13.7438 7.03554 13.7169 7.17181 13.6645 7.29896C13.6121 7.42611 13.5353 7.54164 13.4384 7.63893C13.3414 7.73623 13.2264 7.81339 13.0997 7.86599C12.9731 7.91858 12.8373 7.9456 12.7003 7.94547C12.5632 7.9456 12.4275 7.91858 12.3008 7.86599C12.1742 7.81339 12.0591 7.73623 11.9622 7.63893C11.8653 7.54164 11.7884 7.42611 11.736 7.29896C11.6836 7.17181 11.6567 7.03554 11.6568 6.89794C11.6567 6.76034 11.6836 6.62407 11.736 6.49692C11.7884 6.36978 11.8653 6.25425 11.9622 6.15695C12.0591 6.05965 12.1742 5.9825 12.3008 5.9299C12.4275 5.8773 12.5632 5.85029 12.7003 5.85041V5.85041Z" fill="url(#paint1_linear_19_153)"/>
<path d="M16.0711 27.9177C22.1491 27.9177 21.7696 25.2716 21.7696 25.2716L21.7629 22.5302H15.9627V21.7072H24.0665C24.0665 21.7072 27.9558 22.15 27.9558 15.9931C27.9558 9.83632 24.5611 10.0547 24.5611 10.0547H22.5352V12.9116C22.5352 12.9116 22.6444 16.3196 19.1947 16.3196H13.442C13.442 16.3196 10.21 16.2672 10.21 19.4556V24.7274C10.21 24.7274 9.71918 27.9177 16.071 27.9177H16.0711ZM19.2693 26.0743C19.1322 26.0745 18.9965 26.0475 18.8699 25.9949C18.7432 25.9423 18.6281 25.8651 18.5312 25.7678C18.4343 25.6705 18.3574 25.555 18.305 25.4278C18.2527 25.3007 18.2257 25.1644 18.2259 25.0268C18.2257 24.8892 18.2526 24.7529 18.305 24.6258C18.3574 24.4986 18.4343 24.3831 18.5312 24.2858C18.6281 24.1885 18.7432 24.1113 18.8698 24.0587C18.9965 24.0061 19.1322 23.9791 19.2693 23.9792C19.4064 23.9791 19.5421 24.0061 19.6688 24.0587C19.7954 24.1113 19.9105 24.1884 20.0074 24.2857C20.1043 24.383 20.1812 24.4985 20.2336 24.6257C20.286 24.7528 20.3129 24.8891 20.3127 25.0267C20.3129 25.1643 20.286 25.3006 20.2336 25.4277C20.1812 25.5549 20.1043 25.6704 20.0074 25.7677C19.9105 25.865 19.7954 25.9422 19.6688 25.9948C19.5421 26.0474 19.4064 26.0744 19.2693 26.0742V26.0743Z" fill="url(#paint2_linear_19_153)"/>
</g>
<path d="M46.488 9.22C45.704 9.22 45.024 9.316 44.448 9.508C44.176 9.604 44.04 9.772 44.04 10.012V22.78C44.024 23.116 44.048 23.356 44.112 23.5C44.192 23.628 44.336 23.708 44.544 23.74C44.768 23.788 45.136 23.812 45.648 23.812C46.64 23.812 47.664 23.66 48.72 23.356C48.768 23.212 48.792 23.076 48.792 22.948C48.792 22.756 48.76 22.604 48.696 22.492L47.184 22.54C47.008 22.54 46.92 22.1 46.92 21.22V16.156C48.888 16.092 50.856 15.9 52.824 15.58C53.608 15.404 54.176 15.116 54.528 14.716C54.88 14.316 55.056 13.764 55.056 13.06V9.628C55.056 8.764 54.92 8.1 54.648 7.636C54.392 7.172 53.96 6.852 53.352 6.676C52.76 6.484 51.92 6.388 50.832 6.388C47.92 6.388 45.232 6.764 42.768 7.516C42.704 7.66 42.672 7.852 42.672 8.092C42.672 8.332 42.72 8.54 42.816 8.716C45.024 8.028 47.376 7.676 49.872 7.66C50.48 7.66 50.944 7.732 51.264 7.876C51.6 8.004 51.832 8.236 51.96 8.572C52.104 8.892 52.176 9.356 52.176 9.964V12.964C52.176 13.348 52.128 13.644 52.032 13.852C51.936 14.06 51.768 14.22 51.528 14.332C51.304 14.428 50.952 14.524 50.472 14.62C49.512 14.796 48.328 14.932 46.92 15.028V9.652C46.92 9.364 46.776 9.22 46.488 9.22ZM66.8933 25.828C66.8933 26.18 66.8453 26.452 66.7493 26.644C66.6533 26.836 66.4613 26.996 66.1733 27.124C65.8853 27.252 65.4373 27.372 64.8293 27.484C63.9173 27.644 62.3413 27.74 60.1013 27.772C60.0373 27.916 60.0053 28.124 60.0053 28.396C60.0053 28.556 60.0773 28.764 60.2213 29.02C63.1173 29.036 65.5493 28.836 67.5173 28.42C68.9573 28.148 69.6613 27.348 69.6293 26.02V12.196C69.6453 11.86 69.6213 11.628 69.5573 11.5C69.5093 11.356 69.3893 11.268 69.1973 11.236C69.0053 11.188 68.6693 11.164 68.1893 11.164C67.0853 11.164 66.0053 11.316 64.9493 11.62C64.9013 11.764 64.8773 11.9 64.8773 12.028C64.8773 12.22 64.9093 12.372 64.9733 12.484L66.6293 12.436C66.8053 12.436 66.8933 12.876 66.8933 13.756V21.7C65.3093 22.148 64.1733 22.372 63.4853 22.372C62.5893 22.372 62.1413 22.044 62.1413 21.388V12.196C62.1573 11.86 62.1333 11.628 62.0693 11.5C62.0213 11.356 61.9013 11.268 61.7093 11.236C61.5173 11.188 61.1813 11.164 60.7013 11.164C59.5973 11.164 58.5173 11.316 57.4613 11.62C57.4133 11.764 57.3893 11.9 57.3893 12.028C57.3893 12.22 57.4213 12.372 57.4853 12.484L59.1413 12.436C59.3173 12.436 59.4053 12.876 59.4053 13.756V21.988C59.4053 22.644 59.5893 23.116 59.9573 23.404C60.3253 23.676 60.9493 23.812 61.8293 23.812C61.9893 23.812 62.2613 23.796 62.6453 23.764C63.2853 23.684 63.8373 23.588 64.3013 23.476C64.8773 23.332 65.4453 23.18 66.0053 23.02L66.8933 22.78V25.828ZM79.8261 23.356C79.8741 23.212 79.8981 23.076 79.8981 22.948C79.8981 22.756 79.8661 22.604 79.8021 22.492L78.1461 22.54C77.9701 22.54 77.8821 22.1 77.8821 21.22V12.412L79.8021 12.268C79.8661 12.156 79.8981 11.996 79.8981 11.788C79.8981 11.66 79.8581 11.46 79.7781 11.188L77.8821 11.332V7.54C77.8821 7.268 77.7461 7.132 77.4741 7.132C76.7861 7.132 76.1381 7.22 75.5301 7.396C75.2741 7.492 75.1461 7.652 75.1461 7.876V11.5L73.3701 11.62C73.3061 11.732 73.2741 11.892 73.2741 12.1C73.2741 12.228 73.3141 12.428 73.3941 12.7L75.1461 12.58V22.78C75.1301 23.116 75.1461 23.356 75.1941 23.5C75.2581 23.628 75.3861 23.708 75.5781 23.74C75.7701 23.788 76.1061 23.812 76.5861 23.812C77.6901 23.812 78.7701 23.66 79.8261 23.356ZM95.7199 23.356C95.7679 23.212 95.7919 23.076 95.7919 22.948C95.7919 22.756 95.7599 22.604 95.6959 22.492L94.0399 22.54C93.8639 22.54 93.7759 22.1 93.7759 21.22V12.988C93.7759 12.332 93.5919 11.868 93.2239 11.596C92.8559 11.308 92.2319 11.164 91.3519 11.164C90.9039 11.164 90.3919 11.212 89.8159 11.308L88.1839 11.692L86.4559 12.196V7.42C86.4719 7.084 86.4479 6.852 86.3839 6.724C86.3359 6.58 86.2159 6.492 86.0239 6.46C85.8319 6.412 85.4959 6.388 85.0159 6.388C83.9119 6.388 82.8319 6.54 81.7759 6.844C81.7279 6.988 81.7039 7.124 81.7039 7.252C81.7039 7.444 81.7359 7.596 81.7999 7.708L83.4559 7.66C83.6319 7.66 83.7199 8.1 83.7199 8.98V23.404C83.7199 23.676 83.8559 23.812 84.1279 23.812C84.8159 23.812 85.4639 23.724 86.0719 23.548C86.3279 23.452 86.4559 23.292 86.4559 23.068V13.3C87.9919 12.836 89.0719 12.604 89.6959 12.604C90.5919 12.604 91.0399 12.932 91.0399 13.588V22.78C91.0239 23.116 91.0399 23.356 91.0879 23.5C91.1519 23.628 91.2799 23.708 91.4719 23.74C91.6639 23.788 91.9999 23.812 92.4799 23.812C93.5839 23.812 94.6639 23.66 95.7199 23.356ZM109.137 13.756C109.137 13.068 109.041 12.54 108.849 12.172C108.657 11.804 108.337 11.548 107.889 11.404C107.457 11.244 106.833 11.164 106.017 11.164C103.569 11.164 101.777 11.356 100.641 11.74C99.5206 12.14 98.9606 12.836 98.9606 13.828V21.172C98.9606 21.86 99.0566 22.388 99.2486 22.756C99.4566 23.124 99.7846 23.388 100.233 23.548C100.681 23.708 101.313 23.788 102.129 23.788C104.593 23.788 106.377 23.588 107.481 23.188C108.585 22.772 109.137 22.084 109.137 21.124V13.756ZM106.401 21.028C106.417 21.652 106.225 22.092 105.825 22.348C105.441 22.588 104.545 22.724 103.137 22.756C102.561 22.756 102.177 22.628 101.985 22.372C101.793 22.116 101.697 21.628 101.697 20.908V13.924C101.681 13.284 101.889 12.828 102.321 12.556C102.721 12.3 103.617 12.172 105.009 12.172C105.537 12.172 105.897 12.308 106.089 12.58C106.297 12.836 106.401 13.324 106.401 14.044V21.028ZM117.122 13.276C118.674 12.828 119.81 12.604 120.53 12.604C121.426 12.604 121.874 12.932 121.874 13.588V22.78C121.858 23.116 121.874 23.356 121.922 23.5C121.986 23.628 122.114 23.708 122.306 23.74C122.498 23.788 122.834 23.812 123.314 23.812C124.418 23.812 125.498 23.66 126.554 23.356C126.602 23.212 126.626 23.076 126.626 22.948C126.626 22.756 126.594 22.604 126.53 22.492L124.874 22.54C124.698 22.54 124.61 22.1 124.61 21.22V12.988C124.61 12.332 124.426 11.868 124.058 11.596C123.69 11.308 123.066 11.164 122.186 11.164C122.026 11.164 121.754 11.18 121.37 11.212C120.73 11.292 120.186 11.388 119.738 11.5C119.37 11.58 119.194 11.62 119.21 11.62C118.97 11.668 118.57 11.772 118.01 11.932L117.122 12.196C117.138 11.86 117.114 11.628 117.05 11.5C117.002 11.356 116.882 11.268 116.69 11.236C116.498 11.188 116.162 11.164 115.682 11.164C114.578 11.164 113.498 11.316 112.442 11.62C112.394 11.764 112.37 11.9 112.37 12.028C112.37 12.22 112.402 12.372 112.466 12.484L114.122 12.436C114.298 12.436 114.386 12.876 114.386 13.756V23.404C114.386 23.676 114.522 23.812 114.794 23.812C115.482 23.812 116.13 23.724 116.738 23.548C116.994 23.452 117.122 23.292 117.122 23.068V13.276Z" fill="white"/>
<defs>
<linearGradient id="paint0_linear_19_153" x1="68" y1="-46.5" x2="68" y2="32" gradientUnits="userSpaceOnUse">
<stop stop-color="white"/>
<stop offset="1"/>
</linearGradient>
<linearGradient id="paint1_linear_19_153" x1="6.3145" y1="6.15748" x2="18.2254" y2="17.9035" gradientUnits="userSpaceOnUse">
<stop stop-color="#387EB8"/>
<stop offset="1" stop-color="#366994"/>
</linearGradient>
<linearGradient id="paint2_linear_19_153" x1="13.5973" y1="13.7299" x2="26.3859" y2="25.7723" gradientUnits="userSpaceOnUse">
<stop stop-color="#FFE052"/>
<stop offset="1" stop-color="#FFC331"/>
</linearGradient>
<clipPath id="clip0_19_153">
<rect width="24" height="24" fill="white" transform="translate(4 4)"/>
</clipPath>
</defs>
</svg>
