<svg width="99" height="32" viewBox="0 0 99 32" fill="none" xmlns="http://www.w3.org/2000/svg">
<rect width="99" height="32" rx="4" fill="url(#paint0_linear_19_173)"/>
<rect width="32" height="32" rx="4" fill="white"/>
<g clip-path="url(#clip0_19_173)">
<path d="M24.6513 17.8143C23.8164 17.82 23.0906 18.0881 22.483 18.4845C22.26 17.8958 22.0371 17.3713 21.9978 16.9865C21.954 16.5378 21.9016 16.2638 21.954 15.7275C22.0065 15.1913 22.2426 14.4276 22.2382 14.3694C22.2339 14.3111 22.1857 14.0371 21.7048 14.0314C21.224 14.0255 20.8087 14.1538 20.7606 14.3228C20.7125 14.4918 20.6207 14.8765 20.5595 15.2728C20.4764 15.8558 19.5978 17.9365 19.0951 19.0265C18.9333 18.6011 18.7934 18.228 18.7628 17.9308C18.7191 17.482 18.6666 17.208 18.7191 16.6718C18.7716 16.1355 19.0076 15.372 19.0032 15.3136C18.9988 15.2554 18.9507 14.9814 18.4699 14.9756C17.989 14.9698 17.5736 15.098 17.5256 15.267C17.4775 15.4361 17.425 15.8324 17.3245 16.2171C17.224 16.6019 16.0568 20.0759 15.7508 20.9734C15.6271 21.3366 15.4974 21.6962 15.3617 22.0518C15.3617 22.0518 15.3573 22.0693 15.3442 22.0984C15.3015 22.2099 15.2579 22.3206 15.2131 22.4306V22.4364C15.1475 22.5939 15.0775 22.7395 15.0426 22.7395C15.0163 22.7395 14.9682 22.3199 15.0513 21.7486C15.2261 20.5421 15.6415 18.6653 15.6371 18.6011C15.6371 18.5661 15.7158 18.2398 15.3661 18.0706C15.025 17.9016 14.9027 18.1814 14.872 18.1814C14.8415 18.1814 14.8195 18.2805 14.8195 18.2805C14.8195 18.2805 15.2 16.1705 14.0939 16.1705C13.4033 16.1705 12.4502 17.1789 11.9781 18.0881C11.4414 18.4776 10.9051 18.8681 10.3693 19.2598C10.1115 19.4521 9.8448 19.6445 9.59561 19.8251C9.57808 19.8019 9.56064 19.7726 9.54311 19.7494C8.20539 17.8434 5.73114 16.4969 5.83604 13.9381C5.87542 13.0055 6.1158 10.5574 10.588 7.58475C14.2688 5.16575 17.1978 5.836 17.7049 7.32238C18.4305 9.44413 16.1355 13.3844 12.3322 13.9555C10.8808 14.1713 10.1201 13.4251 9.92786 13.1454C9.72676 12.8539 9.69611 12.8364 9.62176 12.8948C9.49942 12.9823 9.57808 13.2445 9.62176 13.396C9.73548 13.7923 10.2032 14.4918 10.9945 14.8358C11.6939 15.1388 13.3945 15.3079 15.4535 14.247C17.7573 13.0579 19.5584 9.753 19.0295 6.98438C18.5005 4.17488 15.0032 3.24813 11.6939 4.816C9.72676 5.74875 7.59339 7.2175 6.05898 9.12938C4.23601 11.4025 3.94745 13.3785 4.06548 14.2063C4.48961 17.1439 7.52786 19.0557 8.74314 20.4721C8.68192 20.5187 8.62501 20.5596 8.57701 20.5946C7.96933 20.9968 5.65239 22.6112 5.07536 24.3191C4.41967 26.2542 5.18036 27.6416 5.68304 27.828C7.2437 28.4051 8.84804 27.3676 9.70923 25.6539C10.5704 23.9403 10.4655 21.7136 10.0677 20.6936C10.0633 20.682 10.059 20.6702 10.0502 20.6586C10.2076 20.5362 10.3693 20.408 10.5267 20.2856C10.816 20.0576 11.109 19.838 11.4055 19.6269C11.2568 20.169 11.1475 20.816 11.095 21.7486C11.0294 22.8445 11.366 24.2666 11.8075 24.8261C12.0043 25.0711 12.236 25.0769 12.3847 25.0769C12.9005 25.0769 13.1322 24.5056 13.3901 23.8295C13.7049 23.0019 13.989 22.0401 13.989 22.0401C13.989 22.0401 13.6349 24.6397 14.5967 24.6397C14.9464 24.6397 15.3005 24.0335 15.4579 23.7246V23.7304C15.4579 23.7304 15.4666 23.7129 15.4841 23.6721C15.5191 23.5964 15.541 23.5496 15.541 23.5496V23.5381C15.6808 23.2116 15.9956 22.4714 16.4634 21.2415C17.0666 19.6561 17.6481 17.6744 17.6481 17.6744C17.6481 17.6744 17.7006 18.1581 17.8797 18.9625C17.9847 19.4346 18.2032 19.9534 18.3781 20.4546C18.2382 20.717 18.1508 20.8626 18.1508 20.8626L18.1552 20.8685C18.0415 21.0666 17.9191 21.2823 17.7835 21.4923C17.307 22.2499 16.7388 23.1185 16.66 23.369C16.5682 23.6662 16.5901 23.882 16.765 24.0569C16.8918 24.1851 17.119 24.2025 17.3508 24.1851C17.7792 24.1443 18.0808 24.0044 18.2294 23.917C18.4612 23.8062 18.7322 23.6371 18.9857 23.3865C19.4535 22.926 19.7376 22.2674 19.7114 21.399C19.6983 20.921 19.5803 20.443 19.436 19.9941C19.4798 19.9126 19.519 19.831 19.5628 19.7494C20.3016 18.3096 20.8743 16.73 20.8743 16.73C20.8743 16.73 20.9268 17.2138 21.106 18.0183C21.1934 18.4263 21.3727 18.8693 21.53 19.3005C20.8349 20.0525 20.4065 20.9267 20.2535 21.498C19.9781 22.5589 20.1923 23.0367 20.5989 23.1475C20.7824 23.2 21.0447 23.0834 21.2371 22.9726C21.4819 22.8678 21.7705 22.6871 22.0459 22.4189C22.5137 21.9585 22.9639 21.3173 22.9376 20.4489C22.9245 20.0525 22.8459 19.6619 22.7365 19.283C23.3267 18.9568 24.0874 18.776 25.0578 18.9275C27.1388 19.2539 27.5497 20.985 27.4709 21.7138C27.3923 22.4423 26.9551 22.8386 26.8109 22.961C26.6665 23.0835 26.6185 23.1242 26.6317 23.2116C26.6491 23.3399 26.719 23.3341 26.8415 23.3107C27.012 23.27 27.9344 22.722 27.9737 21.3814C28.0393 19.6677 26.8152 17.7968 24.6513 17.8143V17.8143ZM8.59886 25.0303C7.90811 26.0328 6.94642 26.4116 6.53111 26.0911C6.08523 25.7471 6.26008 24.2666 7.10814 23.2059C7.62395 22.5589 8.28845 21.9584 8.73001 21.5912C8.83051 21.5096 8.9792 21.3931 9.15845 21.2474C9.18901 21.224 9.20654 21.2124 9.20654 21.2124L9.31145 21.1249C9.62176 22.6404 9.32458 23.9753 8.59886 25.0303V25.0303ZM13.6262 20.4721C13.3857 21.2532 12.883 23.2525 12.577 23.1418C12.3147 23.0485 12.1529 21.533 12.5245 20.035C12.7125 19.283 13.1103 18.3854 13.342 18.0358C13.718 17.4761 14.1333 17.2895 14.2338 17.517C14.3606 17.8143 13.7748 19.9825 13.6262 20.4721V20.4721ZM17.7748 23.1184C17.6742 23.1884 17.5781 23.235 17.5344 23.2C17.5038 23.1766 17.5781 23.0834 17.5781 23.0834C17.5781 23.0834 18.0984 22.3374 18.3038 21.9993C18.4219 21.8011 18.5617 21.568 18.7104 21.3056V21.3814C18.7104 22.2732 18.0633 22.8736 17.7747 23.1184H17.7748ZM20.9748 22.145C20.9005 22.075 20.9136 21.8419 21.1628 21.1133C21.259 20.8276 21.4862 20.3498 21.8754 19.8893C21.919 20.0758 21.9497 20.2565 21.9453 20.4255C21.9409 21.5505 21.3377 21.9701 20.9748 22.145Z" fill="#CD6799"/>
</g>
<path d="M45.96 8.86C45.96 8.444 46.208 8.132 46.704 7.924C47.184 7.716 48.048 7.612 49.296 7.612C50.448 7.612 51.432 7.708 52.248 7.9C52.344 7.66 52.392 7.404 52.392 7.132C52.392 6.94 52.368 6.748 52.32 6.556C51.072 6.428 50.016 6.364 49.152 6.364C45.04 6.364 42.984 7.196 42.984 8.86C42.968 9.644 43.24 10.476 43.8 11.356L48.792 18.796C49.544 19.964 49.92 20.772 49.92 21.22C49.92 21.796 49.672 22.164 49.176 22.324C48.648 22.5 47.608 22.588 46.056 22.588C44.952 22.588 43.832 22.508 42.696 22.348C42.616 22.588 42.576 22.796 42.576 22.972C42.576 23.212 42.624 23.444 42.72 23.668C44.784 23.812 46.256 23.884 47.136 23.884C50.992 23.884 52.96 22.98 53.04 21.172C53.04 20.964 53.016 20.74 52.968 20.5C52.904 20.26 52.792 19.98 52.632 19.66C52.472 19.324 52.368 19.108 52.32 19.012C52.08 18.628 51.76 18.148 51.36 17.572C50.976 16.98 50.696 16.556 50.52 16.3L47.136 11.356C46.352 10.188 45.96 9.356 45.96 8.86ZM68.0953 23.356C68.1433 23.212 68.1673 23.076 68.1673 22.948C68.1673 22.756 68.1353 22.604 68.0713 22.492L66.4153 22.54C66.2393 22.54 66.1513 22.1 66.1513 21.22V12.916C66.1513 12.292 65.9513 11.844 65.5513 11.572C65.1673 11.3 64.5433 11.164 63.6793 11.164C61.0073 11.164 58.6553 11.484 56.6233 12.124C56.5593 12.236 56.5273 12.396 56.5273 12.604C56.5273 12.812 56.5673 13.012 56.6473 13.204C57.0153 13.092 57.7833 12.924 58.9513 12.7C60.2953 12.476 61.1913 12.364 61.6393 12.364C62.3593 12.364 62.8313 12.46 63.0553 12.652C63.2953 12.844 63.4153 13.244 63.4153 13.852V15.724C61.8153 15.804 60.1273 15.98 58.3513 16.252C57.6153 16.412 57.0793 16.684 56.7433 17.068C56.4073 17.436 56.2393 17.956 56.2393 18.628V21.988C56.2393 22.66 56.4233 23.132 56.7913 23.404C57.1593 23.676 57.7833 23.812 58.6633 23.812C59.9913 23.812 61.5753 23.548 63.4153 23.02C63.4153 23.26 63.4473 23.428 63.5113 23.524C63.5753 23.636 63.7033 23.708 63.8953 23.74C64.1033 23.788 64.4233 23.812 64.8553 23.812C65.9913 23.812 67.0713 23.66 68.0953 23.356ZM63.4153 21.94C62.2153 22.292 61.2393 22.468 60.4873 22.468C59.4793 22.468 58.9753 22.108 58.9753 21.388V18.724C58.9753 18.164 59.0793 17.804 59.2873 17.644C59.5753 17.404 60.1193 17.212 60.9193 17.068C61.7033 16.924 62.5353 16.836 63.4153 16.804V21.94ZM70.4209 23.692C71.2689 23.772 72.4449 23.812 73.9489 23.812C75.1809 23.812 76.1809 23.644 76.9489 23.308C77.7329 22.956 78.1249 22.436 78.1249 21.748C78.1249 21.108 77.8529 20.348 77.3089 19.468L73.9489 14.164C73.6929 13.796 73.5649 13.476 73.5649 13.204C73.5649 12.564 74.1809 12.244 75.4129 12.244C76.3409 12.244 77.0289 12.276 77.4769 12.34C77.5569 12.132 77.5969 11.956 77.5969 11.812C77.5969 11.636 77.5489 11.452 77.4529 11.26C76.9249 11.196 76.1969 11.164 75.2689 11.164C72.2129 11.164 70.6849 11.844 70.6849 13.204C70.6849 13.604 70.7409 13.956 70.8529 14.26C70.9649 14.564 71.2129 15.004 71.5969 15.58L74.9569 20.884C75.1809 21.3 75.2929 21.588 75.2929 21.748C75.2929 22.132 75.1329 22.388 74.8129 22.516C74.4769 22.66 73.9009 22.732 73.0849 22.732C71.8209 22.732 70.9249 22.692 70.3969 22.612C70.3329 22.756 70.3009 22.932 70.3009 23.14C70.3009 23.348 70.3409 23.532 70.4209 23.692ZM80.9546 23.692C81.8026 23.772 82.9786 23.812 84.4826 23.812C85.7146 23.812 86.7146 23.644 87.4826 23.308C88.2666 22.956 88.6586 22.436 88.6586 21.748C88.6586 21.108 88.3866 20.348 87.8426 19.468L84.4826 14.164C84.2266 13.796 84.0986 13.476 84.0986 13.204C84.0986 12.564 84.7146 12.244 85.9466 12.244C86.8746 12.244 87.5626 12.276 88.0106 12.34C88.0906 12.132 88.1306 11.956 88.1306 11.812C88.1306 11.636 88.0826 11.452 87.9866 11.26C87.4586 11.196 86.7306 11.164 85.8026 11.164C82.7466 11.164 81.2186 11.844 81.2186 13.204C81.2186 13.604 81.2746 13.956 81.3866 14.26C81.4986 14.564 81.7466 15.004 82.1306 15.58L85.4906 20.884C85.7146 21.3 85.8266 21.588 85.8266 21.748C85.8266 22.132 85.6666 22.388 85.3466 22.516C85.0106 22.66 84.4346 22.732 83.6186 22.732C82.3546 22.732 81.4586 22.692 80.9306 22.612C80.8666 22.756 80.8346 22.932 80.8346 23.14C80.8346 23.348 80.8746 23.532 80.9546 23.692Z" fill="white"/>
<defs>
<linearGradient id="paint0_linear_19_173" x1="49.5" y1="-46.5" x2="49.5" y2="32" gradientUnits="userSpaceOnUse">
<stop stop-color="white"/>
<stop offset="1"/>
</linearGradient>
<clipPath id="clip0_19_173">
<rect width="24" height="24" fill="white" transform="translate(4 4)"/>
</clipPath>
</defs>
</svg>
