<svg width="175" height="32" viewBox="0 0 175 32" fill="none" xmlns="http://www.w3.org/2000/svg">
<rect width="175" height="32" rx="4" fill="url(#paint0_linear_19_160)"/>
<rect width="32" height="32" rx="4" fill="white"/>
<g clip-path="url(#clip0_19_160)">
<path d="M16 4C12.8 4 10.8 6.65979 10 11.9792C11.2 9.31943 12.6 8.32203 14.2 8.98701C15.1128 9.36634 15.7653 10.4674 16.4876 11.6859C17.6642 13.6712 19.0258 15.9688 22 15.9688C25.2 15.9688 27.2 13.309 28 7.98961C26.8 10.6494 25.4 11.6468 23.8 10.9818C22.8872 10.6025 22.2347 9.50145 21.5124 8.28291C20.3358 6.29761 18.9742 4 16 4ZM10 15.9688C6.80003 15.9688 4.79997 18.6286 4 23.9481C5.2 21.2883 6.59997 20.2909 8.2 20.9558C9.11284 21.3352 9.76534 22.4362 10.4876 23.6548C11.6642 25.6401 13.0258 27.9377 16 27.9377C19.2 27.9377 21.2 25.2779 22 19.9584C20.8 22.6182 19.4 23.6156 17.8 22.9507C16.8872 22.5713 16.2347 21.4703 15.5124 20.2517C14.3358 18.2664 12.9742 15.9688 10 15.9688Z" fill="url(#paint1_linear_19_160)"/>
</g>
<path d="M54.384 6.556C53.008 6.428 51.56 6.364 50.04 6.364C46.984 6.364 44.304 6.668 42 7.276C41.936 7.564 41.904 7.772 41.904 7.9C41.904 8.124 41.952 8.348 42.048 8.572C43.424 8.252 45.048 8.02 46.92 7.876V22.78C46.904 23.116 46.928 23.356 46.992 23.5C47.072 23.628 47.216 23.708 47.424 23.74C47.648 23.788 48.016 23.812 48.528 23.812C49.52 23.812 50.544 23.66 51.6 23.356C51.648 23.212 51.672 23.076 51.672 22.948C51.672 22.756 51.64 22.604 51.576 22.492L50.064 22.54C49.888 22.54 49.8 22.1 49.8 21.22V7.684C51.608 7.668 53.152 7.732 54.432 7.876C54.496 7.7 54.528 7.492 54.528 7.252C54.528 6.948 54.48 6.716 54.384 6.556ZM70.7618 23.356C70.8098 23.212 70.8338 23.076 70.8338 22.948C70.8338 22.756 70.8018 22.604 70.7378 22.492L69.0818 22.54C68.9058 22.54 68.8178 22.1 68.8178 21.22V12.988C68.8178 12.332 68.6338 11.868 68.2658 11.596C67.8978 11.308 67.2738 11.164 66.3938 11.164C65.9458 11.164 65.4338 11.212 64.8578 11.308L63.2258 11.692L61.4978 12.196V7.42C61.5138 7.084 61.4898 6.852 61.4258 6.724C61.3778 6.58 61.2578 6.492 61.0658 6.46C60.8738 6.412 60.5378 6.388 60.0578 6.388C58.9538 6.388 57.8738 6.54 56.8178 6.844C56.7698 6.988 56.7458 7.124 56.7458 7.252C56.7458 7.444 56.7778 7.596 56.8418 7.708L58.4978 7.66C58.6738 7.66 58.7618 8.1 58.7618 8.98V23.404C58.7618 23.676 58.8978 23.812 59.1698 23.812C59.8578 23.812 60.5058 23.724 61.1138 23.548C61.3698 23.452 61.4978 23.292 61.4978 23.068V13.3C63.0338 12.836 64.1138 12.604 64.7378 12.604C65.6338 12.604 66.0818 12.932 66.0818 13.588V22.78C66.0658 23.116 66.0818 23.356 66.1298 23.5C66.1938 23.628 66.3218 23.708 66.5138 23.74C66.7058 23.788 67.0418 23.812 67.5218 23.812C68.6258 23.812 69.7058 23.66 70.7618 23.356ZM85.4025 23.356C85.4505 23.212 85.4745 23.076 85.4745 22.948C85.4745 22.756 85.4425 22.604 85.3785 22.492L83.7225 22.54C83.5465 22.54 83.4585 22.1 83.4585 21.22V12.916C83.4585 12.292 83.2585 11.844 82.8585 11.572C82.4745 11.3 81.8505 11.164 80.9865 11.164C78.3145 11.164 75.9625 11.484 73.9305 12.124C73.8665 12.236 73.8345 12.396 73.8345 12.604C73.8345 12.812 73.8745 13.012 73.9545 13.204C74.3225 13.092 75.0905 12.924 76.2585 12.7C77.6025 12.476 78.4985 12.364 78.9465 12.364C79.6665 12.364 80.1385 12.46 80.3625 12.652C80.6025 12.844 80.7225 13.244 80.7225 13.852V15.724C79.1225 15.804 77.4345 15.98 75.6585 16.252C74.9225 16.412 74.3865 16.684 74.0505 17.068C73.7145 17.436 73.5465 17.956 73.5465 18.628V21.988C73.5465 22.66 73.7305 23.132 74.0985 23.404C74.4665 23.676 75.0905 23.812 75.9705 23.812C77.2985 23.812 78.8825 23.548 80.7225 23.02C80.7225 23.26 80.7545 23.428 80.8185 23.524C80.8825 23.636 81.0105 23.708 81.2025 23.74C81.4105 23.788 81.7305 23.812 82.1625 23.812C83.2985 23.812 84.3785 23.66 85.4025 23.356ZM80.7225 21.94C79.5225 22.292 78.5465 22.468 77.7945 22.468C76.7865 22.468 76.2825 22.108 76.2825 21.388V18.724C76.2825 18.164 76.3865 17.804 76.5945 17.644C76.8825 17.404 77.4265 17.212 78.2265 17.068C79.0105 16.924 79.8425 16.836 80.7225 16.804V21.94ZM88.7601 8.428C88.7281 8.972 88.8561 9.228 89.1441 9.196L91.0161 9.124C91.2241 9.092 91.3521 9.028 91.4001 8.932C91.4641 8.836 91.4961 8.652 91.4961 8.38V7.156C91.5281 6.612 91.4001 6.356 91.1121 6.388L89.2401 6.46C89.0321 6.492 88.8961 6.556 88.8321 6.652C88.7841 6.748 88.7601 6.932 88.7601 7.204V8.428ZM93.9201 23.356C93.9681 23.212 93.9921 23.076 93.9921 22.948C93.9921 22.756 93.9601 22.604 93.8961 22.492H92.2161C92.0561 22.492 91.9761 22.068 91.9761 21.22V12.196C91.9921 11.86 91.9681 11.628 91.9041 11.5C91.8561 11.356 91.7361 11.268 91.5441 11.236C91.3521 11.188 91.0161 11.164 90.5361 11.164C89.4321 11.164 88.3521 11.316 87.2961 11.62C87.2481 11.764 87.2241 11.9 87.2241 12.028C87.2241 12.22 87.2561 12.372 87.3201 12.484L88.9761 12.436C89.1521 12.436 89.2401 12.876 89.2401 13.756V22.78C89.2241 23.116 89.2401 23.356 89.2881 23.5C89.3521 23.628 89.4801 23.708 89.6721 23.74C89.8641 23.788 90.2001 23.812 90.6801 23.812C91.7841 23.812 92.8641 23.66 93.9201 23.356ZM102.338 23.356C102.386 23.212 102.41 23.076 102.41 22.948C102.41 22.756 102.378 22.604 102.314 22.492L100.658 22.54C100.482 22.54 100.394 22.1 100.394 21.22V7.42C100.41 7.084 100.386 6.852 100.322 6.724C100.274 6.58 100.154 6.492 99.9623 6.46C99.7703 6.412 99.4343 6.388 98.9543 6.388C97.8503 6.388 96.7703 6.54 95.7143 6.844C95.6663 6.988 95.6423 7.124 95.6423 7.252C95.6423 7.444 95.6743 7.596 95.7383 7.708L97.3943 7.66C97.5703 7.66 97.6583 8.1 97.6583 8.98V22.78C97.6423 23.116 97.6583 23.356 97.7063 23.5C97.7703 23.628 97.8983 23.708 98.0903 23.74C98.2823 23.788 98.6183 23.812 99.0983 23.812C100.202 23.812 101.282 23.66 102.338 23.356ZM116.307 12.988C116.307 12.636 116.291 12.364 116.259 12.172C116.243 11.98 116.179 11.812 116.067 11.668C115.795 11.348 115.251 11.188 114.435 11.188C113.571 11.188 112.619 11.34 111.579 11.644C111.563 11.74 111.555 11.844 111.555 11.956C111.555 12.18 111.603 12.404 111.699 12.628C112.211 12.5 112.699 12.436 113.163 12.436C113.339 12.436 113.451 12.516 113.499 12.676C113.547 12.836 113.571 13.14 113.571 13.588V21.772C112.771 22.332 111.715 22.612 110.403 22.612C109.923 22.612 109.579 22.476 109.371 22.204C109.179 21.932 109.083 21.46 109.083 20.788V12.196C109.083 11.924 109.075 11.74 109.059 11.644C109.011 11.388 108.803 11.236 108.435 11.188C108.307 11.172 108.043 11.164 107.643 11.164C106.555 11.164 105.475 11.316 104.403 11.62C104.355 11.764 104.331 11.9 104.331 12.028C104.331 12.22 104.363 12.372 104.427 12.484L106.083 12.436C106.163 12.436 106.227 12.524 106.275 12.7C106.323 12.86 106.347 13.212 106.347 13.756V21.172C106.347 22.18 106.651 22.868 107.259 23.236C107.563 23.428 107.947 23.564 108.411 23.644C108.875 23.74 109.451 23.788 110.139 23.788C111.675 23.788 112.915 23.492 113.859 22.9C114.083 23.252 114.443 23.484 114.939 23.596C115.435 23.724 116.195 23.788 117.219 23.788C118.403 23.788 119.387 23.724 120.171 23.596C120.955 23.468 121.587 23.26 122.067 22.972C122.531 22.7 122.867 22.356 123.075 21.94C123.299 21.524 123.411 21.012 123.411 20.404V12.988C123.411 12.636 123.395 12.364 123.363 12.172C123.347 11.98 123.283 11.812 123.171 11.668C122.899 11.348 122.355 11.188 121.539 11.188C120.675 11.188 119.723 11.34 118.683 11.644C118.667 11.74 118.659 11.844 118.659 11.956C118.659 12.18 118.707 12.404 118.803 12.628C119.315 12.5 119.803 12.436 120.267 12.436C120.443 12.436 120.555 12.516 120.603 12.676C120.651 12.836 120.675 13.14 120.675 13.588V20.308C120.675 20.804 120.619 21.212 120.507 21.532C120.411 21.836 120.243 22.076 120.003 22.252C119.763 22.444 119.443 22.58 119.043 22.66C118.643 22.724 118.123 22.756 117.483 22.756C117.035 22.756 116.723 22.636 116.547 22.396C116.387 22.14 116.307 21.644 116.307 20.908V12.988ZM128.189 8.428C128.157 8.972 128.285 9.228 128.573 9.196L130.445 9.124C130.653 9.092 130.781 9.028 130.829 8.932C130.893 8.836 130.925 8.652 130.925 8.38V7.156C130.957 6.612 130.829 6.356 130.541 6.388L128.669 6.46C128.461 6.492 128.325 6.556 128.261 6.652C128.213 6.748 128.189 6.932 128.189 7.204V8.428ZM133.349 23.356C133.397 23.212 133.421 23.076 133.421 22.948C133.421 22.756 133.389 22.604 133.325 22.492H131.645C131.485 22.492 131.405 22.068 131.405 21.22V12.196C131.421 11.86 131.397 11.628 131.333 11.5C131.285 11.356 131.165 11.268 130.973 11.236C130.781 11.188 130.445 11.164 129.965 11.164C128.861 11.164 127.781 11.316 126.725 11.62C126.677 11.764 126.653 11.9 126.653 12.028C126.653 12.22 126.685 12.372 126.749 12.484L128.405 12.436C128.581 12.436 128.669 12.876 128.669 13.756V22.78C128.653 23.116 128.669 23.356 128.717 23.5C128.781 23.628 128.909 23.708 129.101 23.74C129.293 23.788 129.629 23.812 130.109 23.812C131.213 23.812 132.293 23.66 133.349 23.356ZM140.088 13.276C141.64 12.828 142.776 12.604 143.496 12.604C144.392 12.604 144.84 12.932 144.84 13.588V22.78C144.824 23.116 144.84 23.356 144.888 23.5C144.952 23.628 145.08 23.708 145.272 23.74C145.464 23.788 145.8 23.812 146.28 23.812C147.384 23.812 148.464 23.66 149.52 23.356C149.568 23.212 149.592 23.076 149.592 22.948C149.592 22.756 149.56 22.604 149.496 22.492L147.84 22.54C147.664 22.54 147.576 22.1 147.576 21.22V12.988C147.576 12.332 147.392 11.868 147.024 11.596C146.656 11.308 146.032 11.164 145.152 11.164C144.992 11.164 144.72 11.18 144.336 11.212C143.696 11.292 143.152 11.388 142.704 11.5C142.336 11.58 142.16 11.62 142.176 11.62C141.936 11.668 141.536 11.772 140.976 11.932L140.088 12.196C140.104 11.86 140.08 11.628 140.016 11.5C139.968 11.356 139.848 11.268 139.656 11.236C139.464 11.188 139.128 11.164 138.648 11.164C137.544 11.164 136.464 11.316 135.408 11.62C135.36 11.764 135.336 11.9 135.336 12.028C135.336 12.22 135.368 12.372 135.432 12.484L137.088 12.436C137.264 12.436 137.352 12.876 137.352 13.756V23.404C137.352 23.676 137.488 23.812 137.76 23.812C138.448 23.812 139.096 23.724 139.704 23.548C139.96 23.452 140.088 23.292 140.088 23.068V13.276ZM164.96 23.356C165.008 23.212 165.032 23.076 165.032 22.948C165.032 22.756 165 22.604 164.936 22.492H163.256C163.096 22.492 163.016 22.068 163.016 21.22V7.42C163.032 7.084 163.008 6.852 162.944 6.724C162.896 6.58 162.776 6.492 162.584 6.46C162.392 6.412 162.056 6.388 161.576 6.388C160.472 6.388 159.392 6.54 158.336 6.844C158.288 6.988 158.264 7.124 158.264 7.252C158.264 7.444 158.296 7.596 158.36 7.708L160.016 7.66C160.192 7.66 160.28 8.1 160.28 8.98V11.164C158.216 11.228 156.424 11.404 154.904 11.692C153.496 11.948 152.792 12.708 152.792 13.972V21.988C152.792 22.644 152.976 23.116 153.344 23.404C153.712 23.676 154.336 23.812 155.216 23.812C155.376 23.812 155.648 23.796 156.032 23.764C156.672 23.684 157.224 23.588 157.688 23.476C158.264 23.332 158.832 23.18 159.392 23.02L160.28 22.78C160.264 23.116 160.28 23.356 160.328 23.5C160.392 23.628 160.52 23.708 160.712 23.74C160.904 23.788 161.24 23.812 161.72 23.812C162.824 23.812 163.904 23.66 164.96 23.356ZM160.28 21.7C158.696 22.148 157.56 22.372 156.872 22.372C155.976 22.372 155.528 22.044 155.528 21.388V13.996C155.528 13.564 155.632 13.252 155.84 13.06C156.064 12.868 156.496 12.708 157.136 12.58C157.76 12.452 158.808 12.348 160.28 12.268V21.7Z" fill="white"/>
<defs>
<linearGradient id="paint0_linear_19_160" x1="87.5" y1="-46.5" x2="87.5" y2="32" gradientUnits="userSpaceOnUse">
<stop stop-color="white"/>
<stop offset="1"/>
</linearGradient>
<linearGradient id="paint1_linear_19_160" x1="3.33328" y1="11.6601" x2="27.9863" y2="20.2109" gradientUnits="userSpaceOnUse">
<stop stop-color="#2298BD"/>
<stop offset="1" stop-color="#0ED7B5"/>
</linearGradient>
<clipPath id="clip0_19_160">
<rect width="24" height="24" fill="white" transform="translate(4 4)"/>
</clipPath>
</defs>
</svg>
